<svg width="24" height="26" viewBox="0 0 24 26" fill="none" xmlns="http://www.w3.org/2000/svg">
<path d="M12 0.199951C10.3027 0.199951 8.6748 0.874235 7.47457 2.07447C6.27433 3.2747 5.60005 4.90257 5.60005 6.59995C5.60005 8.29734 6.27433 9.9252 7.47457 11.1254C8.6748 12.3257 10.3027 13 12 13C13.6974 13 15.3253 12.3257 16.5255 11.1254C17.7258 9.9252 18.4001 8.29734 18.4001 6.59995C18.4001 4.90257 17.7258 3.2747 16.5255 2.07447C15.3253 0.874235 13.6974 0.199951 12 0.199951ZM4.01445 14.6C3.59307 14.5983 3.1755 14.6798 2.78569 14.8398C2.39588 14.9999 2.0415 15.2353 1.74286 15.5326C1.44423 15.8299 1.20722 16.1832 1.04543 16.5723C0.883645 16.9614 0.800256 17.3786 0.800049 17.7999C0.800049 20.5056 2.13285 22.5456 4.21605 23.8752C6.26725 25.1824 9.03205 25.7999 12 25.7999C14.9681 25.7999 17.7328 25.1824 19.784 23.8752C21.8673 22.5472 23.2001 20.504 23.2001 17.7999C23.2001 16.9513 22.8629 16.1373 22.2628 15.5372C21.6627 14.9371 20.8487 14.6 20 14.6H4.01445Z" fill="#DBD3EB"/>
</svg>
