<svg width="24" height="26" viewBox="0 0 24 26" fill="none" xmlns="http://www.w3.org/2000/svg">
<path d="M15.9199 22.6032C15.7363 23.5074 15.2457 24.3203 14.5313 24.9043C13.8169 25.4882 12.9226 25.8072 11.9999 25.8072C11.0772 25.8072 10.1829 25.4882 9.46851 24.9043C8.7541 24.3203 8.26353 23.5074 8.07992 22.6032H15.9199ZM11.9967 0.199951C17.0351 0.199951 21.1871 3.93595 21.5711 8.76795L21.5919 9.12475L21.5999 9.48315L21.5983 15.2528L23.1247 19.392L23.1647 19.528L23.1903 19.6656L23.1983 19.808C23.1983 20.312 22.8847 20.752 22.3631 20.9392L22.1807 20.992L21.9983 21.008H2.00152C1.86003 21.0075 1.71974 20.9821 1.58712 20.9328C1.12792 20.7648 0.825518 20.3376 0.815918 19.7872L0.822318 19.6L0.876718 19.392L2.39672 15.2576L2.39992 9.46875L2.40632 9.10875C2.60312 4.12155 6.83352 0.199951 11.9967 0.199951Z" fill="#DBD3EB"/>
</svg>
