<svg width="64" height="64" viewBox="0 0 64 64" fill="none" xmlns="http://www.w3.org/2000/svg">
<rect width="64" height="64" rx="16" fill="#333333"/>
<path d="M30.4557 16.3659C30.9066 16.0459 31.4458 15.874 31.9987 15.874C32.5516 15.874 33.0909 16.0459 33.5417 16.3659L45.2457 24.6699C46.6997 25.7019 45.9717 27.9939 44.1897 27.9979H19.8137C18.0257 27.9979 17.2937 25.7039 18.7537 24.6699L30.4557 16.3659ZM31.9997 23.7479C32.4419 23.7479 32.8659 23.5723 33.1785 23.2597C33.4911 22.947 33.6667 22.523 33.6667 22.0809C33.6667 21.6388 33.4911 21.2148 33.1785 20.9022C32.8659 20.5896 32.4419 20.4139 31.9997 20.4139C31.5576 20.4139 31.1336 20.5896 30.821 20.9022C30.5084 21.2148 30.3327 21.6388 30.3327 22.0809C30.3327 22.523 30.5084 22.947 30.821 23.2597C31.1336 23.5723 31.5576 23.7479 31.9997 23.7479ZM20.9997 29.9999V37.9999H24.9997V29.9999H20.9997ZM17.9997 44.3319C17.9997 41.9379 19.9397 39.9979 22.3317 39.9979H41.6657C42.815 39.9984 43.9171 40.4552 44.7298 41.2679C45.5424 42.0806 45.9992 43.1826 45.9997 44.3319V44.9979C45.9997 45.2631 45.8944 45.5175 45.7068 45.705C45.5193 45.8926 45.265 45.9979 44.9997 45.9979H18.9997C18.7345 45.9979 18.4802 45.8926 18.2926 45.705C18.1051 45.5175 17.9997 45.2631 17.9997 44.9979V44.3319ZM42.9997 29.9979V37.9979H38.9997V29.9999H42.9997V29.9979ZM36.9997 29.9979V37.9979H32.9997V29.9999H36.9997V29.9979ZM30.9997 29.9979V37.9979H26.9997V29.9999H30.9997V29.9979Z" fill="white"/>
</svg>
