<svg width="64" height="64" viewBox="0 0 64 64" fill="none" xmlns="http://www.w3.org/2000/svg">
<rect width="64" height="64" rx="16" fill="#333333"/>
<path d="M17 25C17 23.9391 17.4214 22.9217 18.1716 22.1716C18.9217 21.4214 19.9391 21 21 21H43C44.0609 21 45.0783 21.4214 45.8284 22.1716C46.5786 22.9217 47 23.9391 47 25V28H17V25ZM17 30H47V39C47 40.0609 46.5786 41.0783 45.8284 41.8284C45.0783 42.5786 44.0609 43 43 43H21C19.9391 43 18.9217 42.5786 18.1716 41.8284C17.4214 41.0783 17 40.0609 17 39V30ZM39 38C38.7348 38 38.4804 38.1054 38.2929 38.2929C38.1054 38.4804 38 38.7348 38 39C38 39.2652 38.1054 39.5196 38.2929 39.7071C38.4804 39.8946 38.7348 40 39 40H43C43.2652 40 43.5196 39.8946 43.7071 39.7071C43.8946 39.5196 44 39.2652 44 39C44 38.7348 43.8946 38.4804 43.7071 38.2929C43.5196 38.1054 43.2652 38 43 38H39Z" fill="white"/>
</svg>
