<svg width="24" height="24" viewBox="0 0 24 24" fill="none" xmlns="http://www.w3.org/2000/svg">
<path d="M3.6001 6.0001C3.6001 5.36358 3.85295 4.75313 4.30304 4.30304C4.75313 3.85295 5.36358 3.6001 6.0001 3.6001H14.4001C15.0366 3.6001 15.6471 3.85295 16.0972 4.30304C16.5472 4.75313 16.8001 5.36358 16.8001 6.0001V14.4001H20.4001V16.8001C20.4001 17.7549 20.0208 18.6706 19.3457 19.3457C18.6706 20.0208 17.7549 20.4001 16.8001 20.4001H7.2001C6.24532 20.4001 5.32964 20.0208 4.65451 19.3457C3.97938 18.6706 3.6001 17.7549 3.6001 16.8001V6.0001ZM16.8001 19.2001C17.4366 19.2001 18.0471 18.9472 18.4972 18.4972C18.9472 18.0471 19.2001 17.4366 19.2001 16.8001V15.6001H16.8001V19.2001ZM7.8001 7.2001C7.64097 7.2001 7.48836 7.26331 7.37583 7.37583C7.26331 7.48836 7.2001 7.64097 7.2001 7.8001C7.2001 7.95923 7.26331 8.11184 7.37583 8.22436C7.48836 8.33688 7.64097 8.4001 7.8001 8.4001H12.6001C12.7592 8.4001 12.9118 8.33688 13.0244 8.22436C13.1369 8.11184 13.2001 7.95923 13.2001 7.8001C13.2001 7.64097 13.1369 7.48836 13.0244 7.37583C12.9118 7.26331 12.7592 7.2001 12.6001 7.2001H7.8001ZM7.8001 10.8001C7.64097 10.8001 7.48836 10.8633 7.37583 10.9758C7.26331 11.0884 7.2001 11.241 7.2001 11.4001C7.2001 11.5592 7.26331 11.7118 7.37583 11.8244C7.48836 11.9369 7.64097 12.0001 7.8001 12.0001H12.6001C12.7592 12.0001 12.9118 11.9369 13.0244 11.8244C13.1369 11.7118 13.2001 11.5592 13.2001 11.4001C13.2001 11.241 13.1369 11.0884 13.0244 10.9758C12.9118 10.8633 12.7592 10.8001 12.6001 10.8001H7.8001ZM7.8001 14.4001C7.64097 14.4001 7.48836 14.4633 7.37583 14.5758C7.26331 14.6884 7.2001 14.841 7.2001 15.0001C7.2001 15.1592 7.26331 15.3118 7.37583 15.4244C7.48836 15.5369 7.64097 15.6001 7.8001 15.6001H10.2001C10.3592 15.6001 10.5118 15.5369 10.6244 15.4244C10.7369 15.3118 10.8001 15.1592 10.8001 15.0001C10.8001 14.841 10.7369 14.6884 10.6244 14.5758C10.5118 14.4633 10.3592 14.4001 10.2001 14.4001H7.8001Z" fill="#BF13BF"/>
</svg>
