<svg width="24" height="24" viewBox="0 0 24 24" fill="none" xmlns="http://www.w3.org/2000/svg">
<path d="M3.26504 2.46131L21.691 11.5405C21.7915 11.59 21.8761 11.6667 21.9353 11.7618C21.9945 11.8569 22.0258 11.9667 22.0258 12.0787C22.0258 12.1907 21.9945 12.3005 21.9353 12.3956C21.8761 12.4907 21.7915 12.5674 21.691 12.6169L3.26384 21.6961C3.16061 21.7468 3.04497 21.7668 2.93071 21.7537C2.81644 21.7405 2.70837 21.6948 2.61935 21.622C2.53033 21.5491 2.46412 21.4522 2.42861 21.3428C2.39309 21.2334 2.38977 21.1161 2.41904 21.0049L4.24424 14.1109C4.27383 13.9994 4.33496 13.8987 4.42031 13.821C4.50566 13.7433 4.6116 13.6919 4.72544 13.6729L12.9826 12.2965C13.0318 12.2884 13.0782 12.2681 13.1176 12.2375C13.157 12.2069 13.1882 12.167 13.2082 12.1213L13.2298 12.0493C13.241 11.9826 13.2294 11.914 13.1967 11.8548C13.164 11.7955 13.1123 11.749 13.0498 11.7229L12.9826 11.7037L4.67984 10.3201C4.56622 10.3009 4.46053 10.2494 4.37541 10.1717C4.29029 10.094 4.22934 9.9935 4.19984 9.88211L2.41904 3.15371C2.38947 3.0424 2.39256 2.92492 2.42794 2.81532C2.46333 2.70572 2.52951 2.60862 2.61859 2.53561C2.70767 2.4626 2.81587 2.41677 2.93029 2.4036C3.04471 2.39042 3.1605 2.41046 3.26384 2.46131H3.26504Z" fill="white"/>
</svg>
