<svg width="26" height="24" viewBox="0 0 26 24" fill="none" xmlns="http://www.w3.org/2000/svg">
<path d="M25 12.7999C25.2122 12.7999 25.4157 12.7156 25.5657 12.5656C25.7158 12.4155 25.8 12.2121 25.8 11.9999C25.8 11.7877 25.7158 11.5842 25.5657 11.4342C25.4157 11.2842 25.2122 11.1999 25 11.1999H15.4C15.1879 11.1999 14.9844 11.2842 14.8344 11.4342C14.6843 11.5842 14.6 11.7877 14.6 11.9999C14.6 12.2121 14.6843 12.4155 14.8344 12.5656C14.9844 12.7156 15.1879 12.7999 15.4 12.7999H25ZM22.6 17.9887C22.6525 17.8976 22.6864 17.7971 22.7 17.6929C22.7136 17.5887 22.7065 17.4828 22.6792 17.3813C22.624 17.1764 22.4896 17.0018 22.3056 16.8959C22.1217 16.79 21.9032 16.7616 21.6983 16.8168C21.4933 16.872 21.3187 17.0063 21.2128 17.1903C20.0702 19.1747 18.3046 20.7265 16.1899 21.6049C14.0752 22.4834 11.7297 22.6393 9.51736 22.0486C7.305 21.4579 5.34943 20.1536 3.95409 18.3379C2.55874 16.5223 1.80163 14.2969 1.80022 12.007C1.79881 9.71717 2.55318 7.49085 3.94629 5.6735C5.33939 3.85615 7.29335 2.54939 9.50499 1.95595C11.7166 1.36252 14.0623 1.51559 16.178 2.39143C18.2938 3.26727 20.0613 4.8169 21.2064 6.79989C21.2586 6.8916 21.3284 6.9721 21.4117 7.03674C21.4951 7.10138 21.5905 7.14889 21.6923 7.17654C21.7941 7.20418 21.9004 7.21141 22.005 7.19781C22.1096 7.18421 22.2105 7.15005 22.3019 7.0973C22.3933 7.04454 22.4733 6.97424 22.5374 6.89043C22.6015 6.80662 22.6484 6.71096 22.6753 6.60896C22.7023 6.50696 22.7088 6.40064 22.6945 6.29611C22.6802 6.19158 22.6454 6.0909 22.592 5.99989C21.2707 3.71188 19.2311 1.92393 16.7898 0.913462C14.3485 -0.0970077 11.6419 -0.273506 9.09007 0.411352C6.53821 1.09621 4.28371 2.60413 2.67638 4.70116C1.06905 6.79819 0.198753 9.36707 0.200516 12.0092C0.20228 14.6514 1.07601 17.2191 2.68613 19.314C4.29626 21.4089 6.55277 22.9138 9.10554 23.5952C11.6583 24.2767 14.3646 24.0966 16.8046 23.0829C19.2445 22.0691 21.2817 20.2785 22.6 17.9887Z" fill="#DBD3EB"/>
</svg>
