<svg width="32" height="60" viewBox="0 0 32 60" fill="none" xmlns="http://www.w3.org/2000/svg">
<path fill-rule="evenodd" clip-rule="evenodd" d="M29.7164 16.3433L17.0727 3.71904L15.3351 5.45442L15.3346 5.45388L13.5965 3.71904L11.6717 5.64064L12.0128 5.98179L12.6692 6.63706L13.4098 7.37547L12.0128 8.77026L11.2723 8.03185L10.6159 7.37547L10.2748 7.03542L8.38121 8.92571L8.47407 9.01855L10.2434 10.7858L9.28157 11.7466L16.2317 18.6859C17.5239 19.976 17.5239 22.081 16.2317 23.3711L9.88612 29.7071L10.8491 30.6678L9.07968 32.4339L8.98685 32.5268L10.8804 34.4171L11.2215 34.077L11.8779 33.4208L12.6185 32.6823L14.0154 34.077L13.2748 34.8155L12.6185 35.4717L12.2773 35.8119L14.2011 37.7335L15.9402 35.9986L17.6783 37.7335L29.7164 25.7137C30.9928 24.44 31.6391 22.7689 31.6552 21.0929V20.9641C31.6391 19.2881 30.9928 17.6171 29.7164 16.3433ZM13.006 41.4537L14.4029 40.0589L13.006 38.664L11.6091 40.0589L13.006 41.4537ZM15.9402 35.9986L17.864 34.077L15.9402 32.1554L14.0154 34.077L15.9402 35.9986ZM13.4098 7.37547L15.3346 9.29708L17.2594 7.37547L15.3351 5.45442L15.3346 5.45496L13.4098 7.37547ZM10.4604 39.8883L9.56118 40.7864L8.66082 39.8883L9.56118 38.989L10.4604 39.8883ZM6.17678 37.5014L5.49452 38.1837L4.81116 37.5014L5.49452 36.819L6.17678 37.5014ZM7.29413 39.5784L6.44128 40.4301L5.58735 39.5784L6.44128 38.7255L7.29413 39.5784ZM3.78667 38.1524L3.15081 38.7881L2.51388 38.1524L3.15081 37.5165L3.78667 38.1524ZM1.48938 37.4085L1.22597 37.6719L0.962562 37.4085L1.22597 37.1451L1.48938 37.4085ZM3.47683 36.2621L3.0882 36.6497V36.6486L2.70064 36.2621L3.0882 35.8745L3.47683 36.2621ZM5.54092 34.4171L4.96661 34.9915L4.3923 34.4171L4.96661 33.8438L5.54092 34.4171ZM7.09332 35.719L6.47258 36.3388L5.85076 35.719L6.47258 35.0995L7.09332 35.719ZM9.29668 31.1947L8.28837 32.2018L7.279 31.1947L8.28837 30.1875L9.29668 31.1947ZM7.72917 33.1001L7.04581 33.7823L6.36355 33.1001L7.04581 32.4188L7.72917 33.1001ZM9.83969 34.7432L8.70725 35.8745L7.57372 34.7432L8.70725 33.6117L9.83969 34.7432ZM8.87782 37.6094L7.91595 38.5713L6.95297 37.6094L7.91595 36.6486L8.87782 37.6094ZM10.5231 36.8041L9.71554 37.6094L8.90912 36.8041L9.71554 35.9986L10.5231 36.8041ZM12.5558 35.0843L11.5475 36.0915L10.5382 35.0843L11.5475 34.077L12.5558 35.0843ZM13.2856 38.0747L11.9513 39.4079L10.6159 38.0747L11.9513 36.7425L13.2856 38.0747ZM13.9841 38.4308L14.8844 37.5327L15.7848 38.4308L14.8844 39.3301L13.9841 38.4308ZM9.85588 1.56427L8.95555 0.666084L8.05519 1.56427L8.95555 2.46353L9.85588 1.56427ZM5.57224 3.95115L4.88888 3.26995L4.20552 3.95115L4.88888 4.63343L5.57224 3.95115ZM6.68957 1.8741L5.83565 1.02233L4.98172 1.8741L5.83565 2.72695L6.68957 1.8741ZM3.18211 3.30019L2.54518 2.66541L1.90932 3.30019L2.54518 3.93604L3.18211 3.30019ZM0.884834 4.04399L0.620343 3.78058L0.356934 4.04399L0.620343 4.30741L0.884834 4.04399ZM2.8712 5.19048L2.48364 4.804L2.09501 5.19048L2.48364 5.57804L2.8712 5.19048ZM4.93529 7.03542L4.36098 6.46218L3.78667 7.03434L4.36098 7.60866L4.93529 7.03542ZM6.48769 5.73349L5.86694 5.11275L5.2462 5.73349L5.86694 6.35314L6.48769 5.73349ZM8.69212 10.2579L7.68276 9.25066L6.67338 10.2579L7.68276 11.2651L8.69212 10.2579ZM7.12462 8.35248L6.44128 7.6702L5.75792 8.35248L6.44128 9.03366L7.12462 8.35248ZM9.23514 6.7094L8.10162 5.57804L6.96916 6.7094L8.10162 7.84076L9.23514 6.7094ZM8.27219 3.8432L7.31031 2.88241L6.34844 3.8432L7.31031 4.804L8.27219 3.8432ZM9.91742 4.64854L9.111 3.8432L8.30349 4.64854L9.111 5.45388L9.91742 4.64854ZM11.9513 6.36935L10.9419 5.36104L9.93361 6.36935L10.9419 7.37547L11.9513 6.36935ZM12.68 3.37791L11.3457 2.04467L10.0113 3.37791L11.3457 4.71008L12.68 3.37791ZM13.7984 1.3937L12.4015 0L11.0045 1.3937L12.4015 2.78955L13.7984 1.3937ZM15.1791 3.02165L14.2788 2.1224L13.3785 3.02165L14.2788 3.91985L15.1791 3.02165Z" fill="url(#paint0_linear_1_2008)"/>
<path d="M7.03137 56.55L4 48H6.21523L8.33548 54.5162L10.4557 48H12.6709L9.63956 56.55H7.03137Z" fill="#CE0B9F"/>
<path fill-rule="evenodd" clip-rule="evenodd" d="M16.2522 56.6365C15.2611 56.6365 14.4493 56.3192 13.8167 55.6822C13.183 55.0431 12.8667 54.1957 12.8667 53.1388C12.8667 52.083 13.1798 51.242 13.8081 50.617C14.4385 49.993 15.2525 49.6799 16.2522 49.6799C17.2507 49.6799 18.0788 49.9898 18.7351 50.6083C19.3937 51.2248 19.724 52.0808 19.724 53.1777C19.724 53.4109 19.7078 53.63 19.6765 53.834H14.9999C15.0398 54.1342 15.1737 54.3803 15.4015 54.5725C15.6282 54.7624 15.8732 54.8575 16.1356 54.8575C16.4001 54.8575 16.5976 54.8315 16.7272 54.7797C16.8567 54.7258 16.9517 54.6718 17.0122 54.6199C17.0748 54.5681 17.1547 54.4807 17.2497 54.3565H19.5038C19.3105 55.0388 18.9208 55.5905 18.3335 56.0104C17.7484 56.4282 17.0553 56.6365 16.2522 56.6365ZM17.5563 52.5299C17.5239 52.2136 17.3857 51.9556 17.1417 51.757C16.8967 51.5583 16.6073 51.459 16.2738 51.459C15.9423 51.459 15.6627 51.5583 15.436 51.757C15.2082 51.9556 15.0657 52.2136 15.0085 52.5299H17.5563Z" fill="#CE0B9F"/>
<path fill-rule="evenodd" clip-rule="evenodd" d="M25.3642 54.3997C25.6632 54.1126 25.8133 53.7002 25.8133 53.1647C25.8133 52.6293 25.6632 52.2147 25.3642 51.9211C25.0641 51.6274 24.7186 51.4806 24.3278 51.4806C23.9392 51.4806 23.5937 51.6264 23.2914 51.9168C22.9913 52.205 22.8424 52.6163 22.8424 53.1518C22.8424 53.6872 22.9913 54.1018 23.2914 54.3954C23.5937 54.6869 23.9392 54.8315 24.3278 54.8315C24.7186 54.8315 25.0641 54.688 25.3642 54.3997ZM22.8424 50.6429C23.3055 50.0016 23.9694 49.6799 24.833 49.6799C25.6988 49.6799 26.4319 50.007 27.031 50.6602C27.6323 51.3144 27.9335 52.1489 27.9335 53.1647C27.9335 54.1784 27.6323 55.0108 27.031 55.6606C26.4319 56.3116 25.7053 56.6365 24.8503 56.6365C23.9975 56.6365 23.3282 56.2781 22.8424 55.5613V59.7888H20.761V49.7533H22.8424V50.6429Z" fill="#CE0B9F"/>
<defs>
<linearGradient id="paint0_linear_1_2008" x1="0.0998305" y1="18.3362" x2="31.9732" y2="18.7818" gradientUnits="userSpaceOnUse">
<stop stop-color="#94B348"/>
<stop offset="0.00390625" stop-color="#92B24A"/>
<stop offset="0.0078125" stop-color="#90B04B"/>
<stop offset="0.0117188" stop-color="#8EAF4D"/>
<stop offset="0.015625" stop-color="#8CAD4E"/>
<stop offset="0.0195312" stop-color="#8AAC4F"/>
<stop offset="0.0234375" stop-color="#88AA51"/>
<stop offset="0.0273438" stop-color="#86A952"/>
<stop offset="0.03125" stop-color="#84A754"/>
<stop offset="0.0351563" stop-color="#82A655"/>
<stop offset="0.0390625" stop-color="#7FA456"/>
<stop offset="0.0429687" stop-color="#7DA358"/>
<stop offset="0.046875" stop-color="#7BA159"/>
<stop offset="0.0507813" stop-color="#79A05B"/>
<stop offset="0.0546875" stop-color="#779F5C"/>
<stop offset="0.0585938" stop-color="#759D5E"/>
<stop offset="0.0625" stop-color="#739C5F"/>
<stop offset="0.0664062" stop-color="#719A60"/>
<stop offset="0.0703125" stop-color="#6F9962"/>
<stop offset="0.0742187" stop-color="#6D9763"/>
<stop offset="0.078125" stop-color="#6B9665"/>
<stop offset="0.0820313" stop-color="#699466"/>
<stop offset="0.0859375" stop-color="#679367"/>
<stop offset="0.0898438" stop-color="#649169"/>
<stop offset="0.09375" stop-color="#62906A"/>
<stop offset="0.0976563" stop-color="#608E6C"/>
<stop offset="0.101563" stop-color="#5E8D6D"/>
<stop offset="0.105469" stop-color="#5C8B6E"/>
<stop offset="0.109375" stop-color="#5A8A70"/>
<stop offset="0.113281" stop-color="#588871"/>
<stop offset="0.117188" stop-color="#568773"/>
<stop offset="0.121094" stop-color="#548574"/>
<stop offset="0.125" stop-color="#528475"/>
<stop offset="0.128906" stop-color="#508377"/>
<stop offset="0.132812" stop-color="#4E8178"/>
<stop offset="0.136719" stop-color="#4C807A"/>
<stop offset="0.140625" stop-color="#497E7B"/>
<stop offset="0.144531" stop-color="#477D7D"/>
<stop offset="0.148437" stop-color="#457B7E"/>
<stop offset="0.152344" stop-color="#437A7F"/>
<stop offset="0.15625" stop-color="#417881"/>
<stop offset="0.160156" stop-color="#3F7782"/>
<stop offset="0.164063" stop-color="#3D7584"/>
<stop offset="0.167969" stop-color="#3B7485"/>
<stop offset="0.171875" stop-color="#397286"/>
<stop offset="0.175781" stop-color="#377188"/>
<stop offset="0.179687" stop-color="#356F89"/>
<stop offset="0.183594" stop-color="#336E8B"/>
<stop offset="0.1875" stop-color="#316C8C"/>
<stop offset="0.191406" stop-color="#2E6B8D"/>
<stop offset="0.195312" stop-color="#2C698F"/>
<stop offset="0.199219" stop-color="#2A6890"/>
<stop offset="0.203125" stop-color="#286792"/>
<stop offset="0.207031" stop-color="#266593"/>
<stop offset="0.210938" stop-color="#246494"/>
<stop offset="0.214844" stop-color="#226296"/>
<stop offset="0.21875" stop-color="#206197"/>
<stop offset="0.222656" stop-color="#1E5F99"/>
<stop offset="0.226562" stop-color="#1C5E9A"/>
<stop offset="0.230469" stop-color="#1A5C9B"/>
<stop offset="0.234375" stop-color="#185B9D"/>
<stop offset="0.238281" stop-color="#16599E"/>
<stop offset="0.242187" stop-color="#1358A0"/>
<stop offset="0.246094" stop-color="#1156A1"/>
<stop offset="0.25" stop-color="#0F55A3"/>
<stop offset="0.253906" stop-color="#0D53A4"/>
<stop offset="0.257813" stop-color="#0B52A5"/>
<stop offset="0.261719" stop-color="#0950A7"/>
<stop offset="0.265625" stop-color="#074FA8"/>
<stop offset="0.269531" stop-color="#054DAA"/>
<stop offset="0.273438" stop-color="#034CAB"/>
<stop offset="0.277344" stop-color="#024BAC"/>
<stop offset="0.28125" stop-color="#014AAD"/>
<stop offset="0.285156" stop-color="#0249AD"/>
<stop offset="0.289062" stop-color="#0349AD"/>
<stop offset="0.292969" stop-color="#0449AD"/>
<stop offset="0.296875" stop-color="#0548AD"/>
<stop offset="0.300781" stop-color="#0648AC"/>
<stop offset="0.304688" stop-color="#0748AC"/>
<stop offset="0.308594" stop-color="#0947AC"/>
<stop offset="0.3125" stop-color="#0A47AC"/>
<stop offset="0.316406" stop-color="#0B47AC"/>
<stop offset="0.320312" stop-color="#0C46AC"/>
<stop offset="0.324219" stop-color="#0D46AC"/>
<stop offset="0.328125" stop-color="#0E46AC"/>
<stop offset="0.332031" stop-color="#0F45AC"/>
<stop offset="0.335937" stop-color="#1045AC"/>
<stop offset="0.339844" stop-color="#1145AC"/>
<stop offset="0.34375" stop-color="#1344AC"/>
<stop offset="0.347656" stop-color="#1444AC"/>
<stop offset="0.351563" stop-color="#1544AB"/>
<stop offset="0.355469" stop-color="#1643AB"/>
<stop offset="0.359375" stop-color="#1743AB"/>
<stop offset="0.363281" stop-color="#1843AB"/>
<stop offset="0.367188" stop-color="#1942AB"/>
<stop offset="0.371094" stop-color="#1A42AB"/>
<stop offset="0.375" stop-color="#1C42AB"/>
<stop offset="0.378906" stop-color="#1D41AB"/>
<stop offset="0.382812" stop-color="#1E41AB"/>
<stop offset="0.386719" stop-color="#1F40AB"/>
<stop offset="0.390625" stop-color="#2040AB"/>
<stop offset="0.394531" stop-color="#2140AB"/>
<stop offset="0.398437" stop-color="#223FAB"/>
<stop offset="0.402344" stop-color="#233FAB"/>
<stop offset="0.40625" stop-color="#253FAA"/>
<stop offset="0.410156" stop-color="#263EAA"/>
<stop offset="0.414062" stop-color="#273EAA"/>
<stop offset="0.417969" stop-color="#283EAA"/>
<stop offset="0.421875" stop-color="#293DAA"/>
<stop offset="0.425781" stop-color="#2A3DAA"/>
<stop offset="0.429688" stop-color="#2B3DAA"/>
<stop offset="0.433594" stop-color="#2C3CAA"/>
<stop offset="0.4375" stop-color="#2D3CAA"/>
<stop offset="0.441406" stop-color="#2F3CAA"/>
<stop offset="0.445312" stop-color="#303BAA"/>
<stop offset="0.449219" stop-color="#313BAA"/>
<stop offset="0.453125" stop-color="#323BAA"/>
<stop offset="0.457031" stop-color="#333AA9"/>
<stop offset="0.460938" stop-color="#343AA9"/>
<stop offset="0.464844" stop-color="#353AA9"/>
<stop offset="0.46875" stop-color="#3639A9"/>
<stop offset="0.472656" stop-color="#3839A9"/>
<stop offset="0.476562" stop-color="#3939A9"/>
<stop offset="0.480469" stop-color="#3A38A9"/>
<stop offset="0.484375" stop-color="#3B38A9"/>
<stop offset="0.488281" stop-color="#3C38A9"/>
<stop offset="0.492187" stop-color="#3D37A9"/>
<stop offset="0.496094" stop-color="#3E37A9"/>
<stop offset="0.5" stop-color="#3F37A9"/>
<stop offset="0.503906" stop-color="#4036A9"/>
<stop offset="0.507812" stop-color="#4236A9"/>
<stop offset="0.511719" stop-color="#4336A8"/>
<stop offset="0.515625" stop-color="#4435A8"/>
<stop offset="0.519531" stop-color="#4535A8"/>
<stop offset="0.523437" stop-color="#4635A8"/>
<stop offset="0.527344" stop-color="#4734A8"/>
<stop offset="0.53125" stop-color="#4834A8"/>
<stop offset="0.535156" stop-color="#4934A8"/>
<stop offset="0.539062" stop-color="#4B33A8"/>
<stop offset="0.542969" stop-color="#4C33A8"/>
<stop offset="0.546875" stop-color="#4D32A8"/>
<stop offset="0.550781" stop-color="#4E32A8"/>
<stop offset="0.554687" stop-color="#4F32A8"/>
<stop offset="0.558594" stop-color="#5031A8"/>
<stop offset="0.5625" stop-color="#5131A7"/>
<stop offset="0.566406" stop-color="#5231A7"/>
<stop offset="0.570312" stop-color="#5330A7"/>
<stop offset="0.574219" stop-color="#5530A7"/>
<stop offset="0.578125" stop-color="#5630A7"/>
<stop offset="0.582031" stop-color="#572FA7"/>
<stop offset="0.585938" stop-color="#582FA7"/>
<stop offset="0.589844" stop-color="#592FA7"/>
<stop offset="0.59375" stop-color="#5A2EA7"/>
<stop offset="0.597656" stop-color="#5B2EA7"/>
<stop offset="0.601562" stop-color="#5C2EA7"/>
<stop offset="0.605469" stop-color="#5E2DA7"/>
<stop offset="0.609375" stop-color="#5F2DA7"/>
<stop offset="0.613281" stop-color="#602DA6"/>
<stop offset="0.617187" stop-color="#612CA6"/>
<stop offset="0.621094" stop-color="#622CA6"/>
<stop offset="0.625" stop-color="#632CA6"/>
<stop offset="0.628906" stop-color="#642BA6"/>
<stop offset="0.632812" stop-color="#652BA6"/>
<stop offset="0.636719" stop-color="#672BA6"/>
<stop offset="0.640625" stop-color="#682AA6"/>
<stop offset="0.644531" stop-color="#692AA6"/>
<stop offset="0.648438" stop-color="#6A2AA6"/>
<stop offset="0.652344" stop-color="#6B29A6"/>
<stop offset="0.65625" stop-color="#6C29A6"/>
<stop offset="0.660156" stop-color="#6D29A6"/>
<stop offset="0.664062" stop-color="#6E28A6"/>
<stop offset="0.667969" stop-color="#6F28A5"/>
<stop offset="0.671875" stop-color="#7128A5"/>
<stop offset="0.675781" stop-color="#7227A5"/>
<stop offset="0.679688" stop-color="#7327A5"/>
<stop offset="0.683594" stop-color="#7427A5"/>
<stop offset="0.6875" stop-color="#7526A5"/>
<stop offset="0.691406" stop-color="#7626A5"/>
<stop offset="0.695312" stop-color="#7725A5"/>
<stop offset="0.699219" stop-color="#7825A5"/>
<stop offset="0.703125" stop-color="#7A25A5"/>
<stop offset="0.707031" stop-color="#7B24A5"/>
<stop offset="0.710937" stop-color="#7C24A5"/>
<stop offset="0.714844" stop-color="#7D24A5"/>
<stop offset="0.71875" stop-color="#7E23A4"/>
<stop offset="0.722656" stop-color="#7F23A4"/>
<stop offset="0.726562" stop-color="#8023A4"/>
<stop offset="0.730469" stop-color="#8122A4"/>
<stop offset="0.734375" stop-color="#8222A4"/>
<stop offset="0.738281" stop-color="#8422A4"/>
<stop offset="0.742188" stop-color="#8521A4"/>
<stop offset="0.746094" stop-color="#8621A4"/>
<stop offset="0.75" stop-color="#8721A4"/>
<stop offset="0.753906" stop-color="#8820A4"/>
<stop offset="0.757812" stop-color="#8920A4"/>
<stop offset="0.761719" stop-color="#8A20A4"/>
<stop offset="0.765625" stop-color="#8B1FA4"/>
<stop offset="0.769531" stop-color="#8D1FA3"/>
<stop offset="0.773438" stop-color="#8E1FA3"/>
<stop offset="0.777344" stop-color="#8F1EA3"/>
<stop offset="0.78125" stop-color="#901EA3"/>
<stop offset="0.785156" stop-color="#911EA3"/>
<stop offset="0.789062" stop-color="#921DA3"/>
<stop offset="0.792969" stop-color="#931DA3"/>
<stop offset="0.796875" stop-color="#941DA3"/>
<stop offset="0.800781" stop-color="#951CA3"/>
<stop offset="0.804688" stop-color="#971CA3"/>
<stop offset="0.808594" stop-color="#981CA3"/>
<stop offset="0.8125" stop-color="#991BA3"/>
<stop offset="0.816406" stop-color="#9A1BA3"/>
<stop offset="0.820312" stop-color="#9B1BA3"/>
<stop offset="0.824219" stop-color="#9C1AA2"/>
<stop offset="0.828125" stop-color="#9D1AA2"/>
<stop offset="0.832031" stop-color="#9E1AA2"/>
<stop offset="0.835938" stop-color="#A019A2"/>
<stop offset="0.839844" stop-color="#A119A2"/>
<stop offset="0.84375" stop-color="#A218A2"/>
<stop offset="0.847656" stop-color="#A318A2"/>
<stop offset="0.851562" stop-color="#A418A2"/>
<stop offset="0.855469" stop-color="#A517A2"/>
<stop offset="0.859375" stop-color="#A617A2"/>
<stop offset="0.863281" stop-color="#A717A2"/>
<stop offset="0.867188" stop-color="#A816A2"/>
<stop offset="0.871094" stop-color="#AA16A2"/>
<stop offset="0.875" stop-color="#AB16A1"/>
<stop offset="0.878906" stop-color="#AC15A1"/>
<stop offset="0.882812" stop-color="#AD15A1"/>
<stop offset="0.886719" stop-color="#AE15A1"/>
<stop offset="0.890625" stop-color="#AF14A1"/>
<stop offset="0.894531" stop-color="#B014A1"/>
<stop offset="0.898438" stop-color="#B114A1"/>
<stop offset="0.902344" stop-color="#B313A1"/>
<stop offset="0.90625" stop-color="#B413A1"/>
<stop offset="0.910156" stop-color="#B513A1"/>
<stop offset="0.914062" stop-color="#B612A1"/>
<stop offset="0.917969" stop-color="#B712A1"/>
<stop offset="0.921875" stop-color="#B812A1"/>
<stop offset="0.925781" stop-color="#B911A1"/>
<stop offset="0.929688" stop-color="#BA11A0"/>
<stop offset="0.933594" stop-color="#BC11A0"/>
<stop offset="0.9375" stop-color="#BD10A0"/>
<stop offset="0.941406" stop-color="#BE10A0"/>
<stop offset="0.945312" stop-color="#BF10A0"/>
<stop offset="0.949219" stop-color="#C00FA0"/>
<stop offset="0.953125" stop-color="#C10FA0"/>
<stop offset="0.957031" stop-color="#C20FA0"/>
<stop offset="0.960938" stop-color="#C30EA0"/>
<stop offset="0.964844" stop-color="#C40EA0"/>
<stop offset="0.96875" stop-color="#C60EA0"/>
<stop offset="0.972656" stop-color="#C70DA0"/>
<stop offset="0.976563" stop-color="#C80DA0"/>
<stop offset="0.980469" stop-color="#C90D9F"/>
<stop offset="0.984375" stop-color="#CA0C9F"/>
<stop offset="0.988281" stop-color="#CB0C9F"/>
<stop offset="0.992188" stop-color="#CC0B9F"/>
<stop offset="0.996094" stop-color="#CD0B9F"/>
<stop offset="1" stop-color="#CE0B9F"/>
</linearGradient>
</defs>
</svg>
