<svg width="64" height="64" viewBox="0 0 64 64" fill="none" xmlns="http://www.w3.org/2000/svg">
<rect width="64" height="64" rx="16" fill="#333333"/>
<path d="M45.445 22.3211C45.6192 22.4643 45.7595 22.6445 45.8556 22.8486C45.9518 23.0526 46.0014 23.2755 46.001 23.5011C46.0021 23.6973 45.9638 23.8917 45.8882 24.0728C45.8126 24.2539 45.7013 24.4179 45.561 24.5551L39.545 30.5631C39.2638 30.844 38.8825 31.0018 38.485 31.0018C38.0875 31.0018 37.7063 30.844 37.425 30.5631C37.2854 30.4241 37.1747 30.2589 37.0991 30.077C37.0236 29.8951 36.9847 29.7 36.9847 29.5031C36.9847 29.3061 37.0236 29.1111 37.0991 28.9292C37.1747 28.7473 37.2854 28.5821 37.425 28.4431L40.889 25.0011H19.501C19.1032 25.0011 18.7216 24.843 18.4403 24.5617C18.159 24.2804 18.001 23.8989 18.001 23.5011C18.001 23.1032 18.159 22.7217 18.4403 22.4404C18.7216 22.1591 19.1032 22.0011 19.501 22.0011H40.869L37.433 18.5571C37.2937 18.4181 37.1832 18.253 37.1079 18.0713C37.0325 17.8896 36.9937 17.6948 36.9937 17.4981C36.9937 17.3013 37.0325 17.1065 37.1079 16.9248C37.1832 16.7431 37.2937 16.578 37.433 16.4391C37.7143 16.1582 38.0955 16.0004 38.493 16.0004C38.8905 16.0004 39.2718 16.1582 39.553 16.4391L45.445 22.3231V22.3211ZM18.557 39.3211C18.3828 39.4644 18.2425 39.6445 18.1464 39.8486C18.0502 40.0526 18.0006 40.2755 18.001 40.5011C17.9999 40.6973 18.0382 40.8917 18.1138 41.0728C18.1894 41.2539 18.3007 41.4179 18.441 41.5551L24.457 47.5611C24.7383 47.842 25.1195 47.9998 25.517 47.9998C25.9145 47.9998 26.2958 47.842 26.577 47.5611C26.7166 47.4221 26.8273 47.2569 26.9029 47.075C26.9784 46.8931 27.0173 46.698 27.0173 46.5011C27.0173 46.3041 26.9784 46.1091 26.9029 45.9272C26.8273 45.7453 26.7166 45.5801 26.577 45.4411L23.115 42.0011H44.501C44.8988 42.0011 45.2804 41.843 45.5617 41.5617C45.843 41.2804 46.001 40.8989 46.001 40.5011C46.001 40.1032 45.843 39.7217 45.5617 39.4404C45.2804 39.1591 44.8988 39.0011 44.501 39.0011H23.133L26.569 35.5571C26.7083 35.4181 26.8188 35.253 26.8941 35.0713C26.9695 34.8896 27.0083 34.6948 27.0083 34.4981C27.0083 34.3013 26.9695 34.1065 26.8941 33.9248C26.8188 33.7431 26.7083 33.578 26.569 33.4391C26.2878 33.1582 25.9065 33.0004 25.509 33.0004C25.1115 33.0004 24.7303 33.1582 24.449 33.4391L18.555 39.3231L18.557 39.3211Z" fill="white"/>
</svg>
