<svg width="64" height="64" viewBox="0 0 64 64" fill="none" xmlns="http://www.w3.org/2000/svg">
<rect width="64" height="64" rx="16" fill="#333333"/>
<path d="M18 21C18 20.2044 18.3161 19.4413 18.8787 18.8787C19.4413 18.3161 20.2044 18 21 18H41C41.7956 18 42.5587 18.3161 43.1213 18.8787C43.6839 19.4413 44 20.2044 44 21V22.17C44.5852 22.3769 45.0917 22.7602 45.4499 23.267C45.8081 23.7739 46.0003 24.3793 46 25V43C46 43.7956 45.6839 44.5587 45.1213 45.1213C44.5587 45.6839 43.7956 46 43 46H23C21.6739 46 20.4021 45.4732 19.4645 44.5355C18.5268 43.5979 18 42.3261 18 41V21ZM20 21C20 21.2652 20.1054 21.5196 20.2929 21.7071C20.4804 21.8946 20.7348 22 21 22H42V21C42 20.7348 41.8946 20.4804 41.7071 20.2929C41.5196 20.1054 41.2652 20 41 20H21C20.7348 20 20.4804 20.1054 20.2929 20.2929C20.1054 20.4804 20 20.7348 20 21ZM41 34H39C38.7348 34 38.4804 34.1054 38.2929 34.2929C38.1054 34.4804 38 34.7348 38 35C38 35.2652 38.1054 35.5196 38.2929 35.7071C38.4804 35.8946 38.7348 36 39 36H41C41.2652 36 41.5196 35.8946 41.7071 35.7071C41.8946 35.5196 42 35.2652 42 35C42 34.7348 41.8946 34.4804 41.7071 34.2929C41.5196 34.1054 41.2652 34 41 34Z" fill="white"/>
</svg>
