<svg width="151" height="51" viewBox="0 0 151 51" fill="none" xmlns="http://www.w3.org/2000/svg">
<path fill-rule="evenodd" clip-rule="evenodd" d="M36.2283 19.9393L20.6265 4.53735L18.4824 6.65456L18.4818 6.6539L16.3371 4.53735L13.9619 6.88175L14.3829 7.29796L15.1928 8.09742L16.1066 8.9983L14.3829 10.7L13.469 9.79909L12.6591 8.9983L12.2382 8.58342L9.9016 10.8896L10.0162 11.0029L12.1995 13.159L11.0126 14.3312L19.5887 22.7974C21.1833 24.3713 21.1833 26.9395 19.5887 28.5135L11.7586 36.2435L12.9468 37.4156L10.7635 39.5704L10.6489 39.6837L12.9855 41.9899L13.4064 41.575L14.2163 40.7743L15.1302 39.8733L16.8539 41.575L15.9401 42.476L15.1302 43.2766L14.7092 43.6916L17.0831 46.036L19.2291 43.9194L21.3738 46.036L36.2283 31.3715C37.8033 29.8175 38.6008 27.7788 38.6207 25.734V25.5769C38.6008 23.532 37.8033 21.4933 36.2283 19.9393ZM15.6084 50.5747L17.3321 48.8731L15.6084 47.1712L13.8847 48.8731L15.6084 50.5747ZM19.2291 43.9194L21.6029 41.575L19.2291 39.2305L16.8539 41.575L19.2291 43.9194ZM16.1066 8.9983L18.4818 11.3427L20.8569 8.9983L18.4824 6.65456L18.4818 6.65522L16.1066 8.9983ZM12.4673 48.665L11.3576 49.7607L10.2466 48.665L11.3576 47.5677L12.4673 48.665ZM7.18143 45.7528L6.33955 46.5853L5.49631 45.7528L6.33955 44.9203L7.18143 45.7528ZM8.56019 48.2869L7.50781 49.326L6.45411 48.2869L7.50781 47.2463L8.56019 48.2869ZM4.23214 46.5471L3.44752 47.3227L2.66158 46.5471L3.44752 45.7713L4.23214 46.5471ZM1.39739 45.6395L1.07235 45.9609L0.747318 45.6395L1.07235 45.3181L1.39739 45.6395ZM3.84982 44.2408L3.37026 44.7137V44.7124L2.89202 44.2408L3.37026 43.7679L3.84982 44.2408ZM6.39681 41.9899L5.68814 42.6907L4.97946 41.9899L5.68814 41.2905L6.39681 41.9899ZM8.3124 43.5783L7.54643 44.3344L6.77913 43.5783L7.54643 42.8224L8.3124 43.5783ZM11.0312 38.0584L9.78705 39.2872L8.54152 38.0584L9.78705 36.8297L11.0312 38.0584ZM9.09701 40.3831L8.25378 41.2154L7.4119 40.3831L8.25378 39.5519L9.09701 40.3831ZM11.7013 42.3877L10.3039 43.7679L8.90519 42.3877L10.3039 41.0072L11.7013 42.3877ZM10.5144 45.8845L9.32749 47.0582L8.13922 45.8845L9.32749 44.7124L10.5144 45.8845ZM12.5445 44.9021L11.5481 45.8845L10.553 44.9021L11.5481 43.9194L12.5445 44.9021ZM15.0529 42.804L13.8087 44.0327L12.5632 42.804L13.8087 41.575L15.0529 42.804ZM15.9534 46.4523L14.3069 48.0788L12.6591 46.4523L14.3069 44.827L15.9534 46.4523ZM16.8153 46.8867L17.9263 45.791L19.0373 46.8867L17.9263 47.984L16.8153 46.8867ZM11.7213 1.90845L10.6103 0.812642L9.49931 1.90845L10.6103 3.00558L11.7213 1.90845ZM6.43546 4.82052L5.59223 3.98943L4.74899 4.82052L5.59223 5.65293L6.43546 4.82052ZM7.81419 2.28646L6.76049 1.24728L5.70678 2.28646L6.76049 3.32696L7.81419 2.28646ZM3.48614 4.02633L2.7002 3.25188L1.91558 4.02633L2.7002 4.80209L3.48614 4.02633ZM0.651406 4.93379L0.325035 4.61243L0 4.93379L0.325035 5.25517L0.651406 4.93379ZM3.10249 6.33254L2.62426 5.86102L2.1447 6.33254L2.62426 6.80538L3.10249 6.33254ZM5.64949 8.58342L4.94081 7.88406L4.23214 8.58211L4.94081 9.28279L5.64949 8.58342ZM7.56508 6.99504L6.79911 6.23771L6.03314 6.99504L6.79911 7.75102L7.56508 6.99504ZM10.2853 12.5149L9.03975 11.2861L7.79422 12.5149L9.03975 13.7438L10.2853 12.5149ZM8.35102 10.1903L7.50781 9.35787L6.66458 10.1903L7.50781 11.0213L8.35102 10.1903ZM10.9553 8.18567L9.5566 6.80538L8.1592 8.18567L9.5566 9.56596L10.9553 8.18567ZM9.76707 4.68882L8.58016 3.51662L7.39325 4.68882L8.58016 5.86102L9.76707 4.68882ZM11.7972 5.67136L10.8021 4.68882L9.80569 5.67136L10.8021 6.6539L11.7972 5.67136ZM14.3069 7.7708L13.0614 6.54064L11.8172 7.7708L13.0614 8.9983L14.3069 7.7708ZM15.2061 4.12116L13.5596 2.49456L11.9131 4.12116L13.5596 5.74644L15.2061 4.12116ZM16.5862 1.70035L14.8624 0L13.1387 1.70035L14.8624 3.40333L16.5862 1.70035ZM18.2899 3.68651L17.179 2.58939L16.068 3.68651L17.179 4.78234L18.2899 3.68651Z" fill="url(#paint0_linear_1_64)"/>
<path d="M59.7172 25.0321L51.4943 1.83911H57.5034L63.2548 19.515L69.0061 1.83911H75.0152L66.7923 25.0321H59.7172Z" fill="#CE0B9F"/>
<path fill-rule="evenodd" clip-rule="evenodd" d="M84.7299 25.2672C82.0416 25.2672 79.8394 24.4062 78.1234 22.6784C76.4044 20.9448 75.5464 18.6461 75.5464 15.7791C75.5464 12.9152 76.3956 10.6339 78.1 8.93835C79.8102 7.24574 82.0182 6.39648 84.7299 6.39648C87.4386 6.39648 89.6847 7.23695 91.4652 8.91493C93.2516 10.587 94.1476 12.9093 94.1476 15.8845C94.1476 16.5171 94.1037 17.1116 94.0188 17.665H81.3329C81.4413 18.4791 81.8044 19.1468 82.4223 19.6681C83.0373 20.1834 83.702 20.4412 84.4136 20.4412C85.1311 20.4412 85.667 20.3709 86.0184 20.2303C86.3698 20.0839 86.6275 19.9374 86.7915 19.7969C86.9613 19.6563 87.178 19.4192 87.4357 19.0824H93.5502C93.0261 20.9331 91.9689 22.4295 90.3759 23.5687C88.7887 24.702 86.9086 25.2672 84.7299 25.2672ZM88.2674 14.1275C88.1796 13.2695 87.8047 12.5696 87.1429 12.0307C86.4781 11.4919 85.6933 11.2225 84.7885 11.2225C83.8894 11.2225 83.131 11.4919 82.516 12.0307C81.8981 12.5696 81.5116 13.2695 81.3563 14.1275H88.2674Z" fill="#CE0B9F"/>
<path fill-rule="evenodd" clip-rule="evenodd" d="M109.448 19.1995C110.259 18.4205 110.666 17.3019 110.666 15.8494C110.666 14.3969 110.259 13.2724 109.448 12.4759C108.634 11.6793 107.697 11.2811 106.636 11.2811C105.582 11.2811 104.645 11.6764 103.825 12.4642C103.011 13.246 102.607 14.3618 102.607 15.8143C102.607 17.2667 103.011 18.3912 103.825 19.1878C104.645 19.9785 105.582 20.3709 106.636 20.3709C107.697 20.3709 108.634 19.9814 109.448 19.1995ZM102.607 9.00863C103.863 7.26915 105.664 6.39648 108.007 6.39648C110.355 6.39648 112.344 7.2838 113.969 9.0555C115.6 10.8301 116.417 13.0938 116.417 15.8494C116.417 18.5992 115.6 20.857 113.969 22.6199C112.344 24.3857 110.373 25.2672 108.054 25.2672C105.74 25.2672 103.925 24.2949 102.607 22.3505V33.8181H96.9609V6.59563H102.607V9.00863Z" fill="#CE0B9F"/>
<path fill-rule="evenodd" clip-rule="evenodd" d="M62.8394 44.8805H63.5422C64.1513 44.8805 64.6257 44.6989 64.9713 44.33C65.3139 43.9551 65.4867 43.4573 65.4867 42.8306C65.4867 42.2069 65.3139 41.712 64.9713 41.343C64.6257 40.9682 64.1513 40.7807 63.5422 40.7807H62.8394V44.8805ZM63.5422 39.5742C64.5789 39.5742 65.431 39.8759 66.0958 40.4762C66.7664 41.0794 67.1032 41.8643 67.1032 42.8306C67.1032 43.7911 66.7664 44.576 66.0958 45.1851C65.431 45.7883 64.5789 46.087 63.5422 46.087H61.2463V39.5742H63.5422Z" fill="#010708"/>
<path fill-rule="evenodd" clip-rule="evenodd" d="M70.29 40.3238C70.1084 40.5053 69.8858 40.5932 69.6223 40.5932C69.3646 40.5932 69.145 40.5053 68.9663 40.3238C68.7935 40.1451 68.7086 39.9255 68.7086 39.6678C68.7086 39.4043 68.7935 39.1817 68.9663 39.0001C69.145 38.8215 69.3646 38.7307 69.6223 38.7307C69.8858 38.7307 70.1084 38.8215 70.29 39.0001C70.4686 39.1817 70.5594 39.4043 70.5594 39.6678C70.5594 39.9255 70.4686 40.1451 70.29 40.3238ZM68.8375 46.0869V40.9095H70.4305V46.0869H68.8375Z" fill="#010708"/>
<path fill-rule="evenodd" clip-rule="evenodd" d="M72.859 45.4189C72.4051 44.9211 72.1796 44.2827 72.1796 43.5096C72.1796 42.7365 72.4051 42.101 72.859 41.6003C73.3187 41.1024 73.878 40.8506 74.534 40.8506C75.1958 40.8506 75.7054 41.0966 76.0568 41.5885V40.9091H77.6381V46.0632C77.6381 46.7806 77.4419 47.381 77.0524 47.8671C76.8475 48.116 76.5751 48.3063 76.2325 48.441C75.8869 48.5816 75.4945 48.6519 75.0494 48.6519C74.2529 48.6519 73.6203 48.4879 73.1518 48.1599C72.6891 47.8378 72.4314 47.3458 72.3787 46.684H73.9366C74.083 47.0735 74.4549 47.2697 75.0494 47.2697C75.3364 47.2697 75.5765 47.1701 75.7639 46.9768C75.9572 46.7806 76.0568 46.4761 76.0568 46.0632V45.3369C75.6732 45.8845 75.1578 46.1569 74.5106 46.1569C73.8693 46.1569 73.3187 45.9109 72.859 45.4189ZM75.7054 44.4467C75.9396 44.2212 76.0568 43.9049 76.0568 43.4979C76.0568 43.0938 75.9396 42.7804 75.7054 42.5608C75.477 42.3441 75.2163 42.2328 74.9206 42.2328C74.6219 42.2328 74.3612 42.347 74.1357 42.5725C73.9073 42.7921 73.796 43.1055 73.796 43.5096C73.796 43.9166 73.9073 44.23 74.1357 44.4467C74.3612 44.6663 74.6219 44.7747 74.9206 44.7747C75.2163 44.7747 75.477 44.6663 75.7054 44.4467Z" fill="#010708"/>
<path fill-rule="evenodd" clip-rule="evenodd" d="M81.2179 40.3238C81.0364 40.5053 80.8138 40.5932 80.5503 40.5932C80.2926 40.5932 80.0729 40.5053 79.8943 40.3238C79.7215 40.1451 79.6366 39.9255 79.6366 39.6678C79.6366 39.4043 79.7215 39.1817 79.8943 39.0001C80.0729 38.8215 80.2926 38.7307 80.5503 38.7307C80.8138 38.7307 81.0364 38.8215 81.2179 39.0001C81.3966 39.1817 81.4874 39.4043 81.4874 39.6678C81.4874 39.9255 81.3966 40.1451 81.2179 40.3238ZM79.7654 46.0869V40.9095H81.3585V46.0869H79.7654Z" fill="#010708"/>
<path d="M85.6848 44.74H86.2471V46.087H85.4505C84.8648 46.087 84.4109 45.9582 84.0917 45.7005C83.7696 45.4428 83.6115 45.0035 83.6115 44.3769V42.2333H83.1312V40.9096H83.6115V39.6445H85.2045V40.9096H86.2471V42.2333H85.2045V44.3769C85.2045 44.6199 85.3627 44.74 85.6848 44.74Z" fill="#010708"/>
<path fill-rule="evenodd" clip-rule="evenodd" d="M91.2217 44.4467C91.456 44.2212 91.5731 43.9049 91.5731 43.4979C91.5731 43.0938 91.456 42.7804 91.2217 42.5608C90.9933 42.3441 90.7327 42.2328 90.4369 42.2328C90.1382 42.2328 89.8776 42.347 89.6521 42.5725C89.4237 42.7921 89.3124 43.1055 89.3124 43.5096C89.3124 43.9166 89.4237 44.23 89.6521 44.4467C89.8776 44.6663 90.1382 44.7747 90.4369 44.7747C90.7327 44.7747 90.9933 44.6663 91.2217 44.4467ZM88.3753 45.4189C87.9214 44.9211 87.6959 44.2827 87.6959 43.5096C87.6959 42.7365 87.9214 42.101 88.3753 41.6003C88.8351 41.1024 89.3944 40.8506 90.0504 40.8506C90.7122 40.8506 91.2217 41.0966 91.5731 41.5885V40.9091H93.1545V46.0866H91.5731V45.3369C91.1895 45.8845 90.6741 46.1569 90.0269 46.1569C89.3856 46.1569 88.8351 45.9109 88.3753 45.4189Z" fill="#010708"/>
<path d="M95.2819 46.0868V39.2227H96.8749V46.0868H95.2819Z" fill="#010708"/>
<path fill-rule="evenodd" clip-rule="evenodd" d="M107.487 41.5656C107.487 42.0107 107.329 42.4382 107.019 42.8423C106.846 43.0532 106.597 43.226 106.269 43.3577C105.941 43.4924 105.549 43.5569 105.098 43.5569H104.114V46.087H102.521V39.5742H105.098C105.847 39.5742 106.433 39.7704 106.855 40.1599C107.276 40.5523 107.487 41.0209 107.487 41.5656ZM104.114 42.3504H105.098C105.338 42.3504 105.525 42.2801 105.66 42.1395C105.801 41.9931 105.871 41.8057 105.871 41.5773C105.871 41.343 105.801 41.1526 105.66 41.0033C105.519 40.8569 105.332 40.7807 105.098 40.7807H104.114V42.3504Z" fill="#010708"/>
<path fill-rule="evenodd" clip-rule="evenodd" d="M112.327 44.4467C112.561 44.2212 112.678 43.9049 112.678 43.4979C112.678 43.0938 112.561 42.7804 112.327 42.5608C112.098 42.3441 111.838 42.2328 111.542 42.2328C111.243 42.2328 110.983 42.347 110.757 42.5725C110.529 42.7921 110.418 43.1055 110.418 43.5096C110.418 43.9166 110.529 44.23 110.757 44.4467C110.983 44.6663 111.243 44.7747 111.542 44.7747C111.838 44.7747 112.098 44.6663 112.327 44.4467ZM109.48 45.4189C109.027 44.9211 108.801 44.2827 108.801 43.5096C108.801 42.7365 109.027 42.101 109.48 41.6003C109.94 41.1024 110.5 40.8506 111.155 40.8506C111.817 40.8506 112.327 41.0966 112.678 41.5885V40.9091H114.26V46.0866H112.678V45.3369C112.295 45.8845 111.779 46.1569 111.132 46.1569C110.491 46.1569 109.94 45.9109 109.48 45.4189Z" fill="#010708"/>
<path d="M117.746 45.9814L115.731 40.9094H117.535L118.683 44.2947L119.948 40.9094H121.611L118.308 48.5585H116.645L117.746 45.9814Z" fill="#010708"/>
<path d="M124.663 40.9091V41.6705C124.991 41.1259 125.512 40.8506 126.232 40.8506C126.613 40.8506 126.953 40.9414 127.251 41.12C127.556 41.2928 127.79 41.5388 127.954 41.858C128.147 41.5534 128.399 41.3133 128.704 41.1317C129.008 40.9443 129.348 40.8506 129.723 40.8506C130.355 40.8506 130.853 41.0468 131.222 41.4363C131.597 41.8287 131.784 42.3704 131.784 43.0645V46.0866H130.203V43.2753C130.203 42.9415 130.112 42.6838 129.934 42.5022C129.761 42.3236 129.518 42.2328 129.207 42.2328C128.903 42.2328 128.66 42.3236 128.481 42.5022C128.308 42.6838 128.223 42.9415 128.223 43.2753V46.0866H126.642V43.2753C126.642 42.9415 126.551 42.6838 126.373 42.5022C126.2 42.3236 125.957 42.2328 125.646 42.2328C125.342 42.2328 125.099 42.3236 124.92 42.5022C124.747 42.6838 124.663 42.9415 124.663 43.2753V46.0866H123.069V40.9091H124.663Z" fill="#010708"/>
<path fill-rule="evenodd" clip-rule="evenodd" d="M136.061 46.1569C135.302 46.1569 134.681 45.9167 134.198 45.4306C133.721 44.9387 133.484 44.2915 133.484 43.4862C133.484 42.6838 133.721 42.0424 134.198 41.5651C134.681 41.0907 135.302 40.8506 136.061 40.8506C136.825 40.8506 137.457 41.0907 137.958 41.5651C138.456 42.0337 138.708 42.6867 138.708 43.5213C138.708 43.7029 138.696 43.8669 138.673 44.0133H135.112C135.135 44.2475 135.232 44.4408 135.405 44.5872C135.583 44.7278 135.771 44.7981 135.967 44.7981C136.169 44.7981 136.321 44.7805 136.424 44.7395C136.523 44.7015 136.599 44.6634 136.646 44.6224C136.693 44.5755 136.752 44.5052 136.822 44.4115H138.544C138.394 44.9357 138.099 45.3574 137.654 45.6766C137.208 45.9987 136.675 46.1569 136.061 46.1569ZM137.056 43.0293C137.033 42.7892 136.927 42.593 136.74 42.4436C136.552 42.2884 136.33 42.2094 136.072 42.2094C135.82 42.2094 135.61 42.2884 135.44 42.4436C135.267 42.593 135.159 42.7892 135.112 43.0293H137.056Z" fill="#010708"/>
<path d="M142.051 40.9091V41.6705C142.379 41.1259 142.9 40.8506 143.621 40.8506C144.212 40.8506 144.692 41.0497 145.061 41.448C145.427 41.8462 145.612 42.3851 145.612 43.0645V46.0866H144.031V43.2753C144.031 42.9415 143.94 42.6838 143.761 42.5022C143.588 42.3236 143.345 42.2328 143.035 42.2328C142.73 42.2328 142.487 42.3236 142.309 42.5022C142.136 42.6838 142.051 42.9415 142.051 43.2753V46.0866H140.458V40.9091H142.051Z" fill="#010708"/>
<path d="M149.89 44.74H150.452V46.087H149.655C149.07 46.087 148.616 45.9582 148.297 45.7005C147.975 45.4428 147.816 45.0035 147.816 44.3769V42.2333H147.336V40.9096H147.816V39.6445H149.409V40.9096H150.452V42.2333H149.409V44.3769C149.409 44.6199 149.568 44.74 149.89 44.74Z" fill="#010708"/>
<defs>
<linearGradient id="paint0_linear_1_64" x1="-0.317254" y1="22.3707" x2="39.0129" y2="22.9268" gradientUnits="userSpaceOnUse">
<stop stop-color="#94B348"/>
<stop offset="0.00390625" stop-color="#92B24A"/>
<stop offset="0.0078125" stop-color="#90B04B"/>
<stop offset="0.0117188" stop-color="#8EAF4D"/>
<stop offset="0.015625" stop-color="#8CAD4E"/>
<stop offset="0.0195312" stop-color="#8AAC4F"/>
<stop offset="0.0234375" stop-color="#88AA51"/>
<stop offset="0.0273438" stop-color="#86A952"/>
<stop offset="0.03125" stop-color="#84A754"/>
<stop offset="0.0351563" stop-color="#82A655"/>
<stop offset="0.0390625" stop-color="#7FA456"/>
<stop offset="0.0429687" stop-color="#7DA358"/>
<stop offset="0.046875" stop-color="#7BA159"/>
<stop offset="0.0507813" stop-color="#79A05B"/>
<stop offset="0.0546875" stop-color="#779F5C"/>
<stop offset="0.0585938" stop-color="#759D5E"/>
<stop offset="0.0625" stop-color="#739C5F"/>
<stop offset="0.0664062" stop-color="#719A60"/>
<stop offset="0.0703125" stop-color="#6F9962"/>
<stop offset="0.0742187" stop-color="#6D9763"/>
<stop offset="0.078125" stop-color="#6B9665"/>
<stop offset="0.0820313" stop-color="#699466"/>
<stop offset="0.0859375" stop-color="#679367"/>
<stop offset="0.0898438" stop-color="#649169"/>
<stop offset="0.09375" stop-color="#62906A"/>
<stop offset="0.0976563" stop-color="#608E6C"/>
<stop offset="0.101563" stop-color="#5E8D6D"/>
<stop offset="0.105469" stop-color="#5C8B6E"/>
<stop offset="0.109375" stop-color="#5A8A70"/>
<stop offset="0.113281" stop-color="#588871"/>
<stop offset="0.117188" stop-color="#568773"/>
<stop offset="0.121094" stop-color="#548574"/>
<stop offset="0.125" stop-color="#528475"/>
<stop offset="0.128906" stop-color="#508377"/>
<stop offset="0.132812" stop-color="#4E8178"/>
<stop offset="0.136719" stop-color="#4C807A"/>
<stop offset="0.140625" stop-color="#497E7B"/>
<stop offset="0.144531" stop-color="#477D7D"/>
<stop offset="0.148437" stop-color="#457B7E"/>
<stop offset="0.152344" stop-color="#437A7F"/>
<stop offset="0.15625" stop-color="#417881"/>
<stop offset="0.160156" stop-color="#3F7782"/>
<stop offset="0.164063" stop-color="#3D7584"/>
<stop offset="0.167969" stop-color="#3B7485"/>
<stop offset="0.171875" stop-color="#397286"/>
<stop offset="0.175781" stop-color="#377188"/>
<stop offset="0.179687" stop-color="#356F89"/>
<stop offset="0.183594" stop-color="#336E8B"/>
<stop offset="0.1875" stop-color="#316C8C"/>
<stop offset="0.191406" stop-color="#2E6B8D"/>
<stop offset="0.195312" stop-color="#2C698F"/>
<stop offset="0.199219" stop-color="#2A6890"/>
<stop offset="0.203125" stop-color="#286792"/>
<stop offset="0.207031" stop-color="#266593"/>
<stop offset="0.210938" stop-color="#246494"/>
<stop offset="0.214844" stop-color="#226296"/>
<stop offset="0.21875" stop-color="#206197"/>
<stop offset="0.222656" stop-color="#1E5F99"/>
<stop offset="0.226562" stop-color="#1C5E9A"/>
<stop offset="0.230469" stop-color="#1A5C9B"/>
<stop offset="0.234375" stop-color="#185B9D"/>
<stop offset="0.238281" stop-color="#16599E"/>
<stop offset="0.242187" stop-color="#1358A0"/>
<stop offset="0.246094" stop-color="#1156A1"/>
<stop offset="0.25" stop-color="#0F55A3"/>
<stop offset="0.253906" stop-color="#0D53A4"/>
<stop offset="0.257813" stop-color="#0B52A5"/>
<stop offset="0.261719" stop-color="#0950A7"/>
<stop offset="0.265625" stop-color="#074FA8"/>
<stop offset="0.269531" stop-color="#054DAA"/>
<stop offset="0.273438" stop-color="#034CAB"/>
<stop offset="0.277344" stop-color="#024BAC"/>
<stop offset="0.28125" stop-color="#014AAD"/>
<stop offset="0.285156" stop-color="#0249AD"/>
<stop offset="0.289062" stop-color="#0349AD"/>
<stop offset="0.292969" stop-color="#0449AD"/>
<stop offset="0.296875" stop-color="#0548AD"/>
<stop offset="0.300781" stop-color="#0648AC"/>
<stop offset="0.304688" stop-color="#0748AC"/>
<stop offset="0.308594" stop-color="#0947AC"/>
<stop offset="0.3125" stop-color="#0A47AC"/>
<stop offset="0.316406" stop-color="#0B47AC"/>
<stop offset="0.320312" stop-color="#0C46AC"/>
<stop offset="0.324219" stop-color="#0D46AC"/>
<stop offset="0.328125" stop-color="#0E46AC"/>
<stop offset="0.332031" stop-color="#0F45AC"/>
<stop offset="0.335937" stop-color="#1045AC"/>
<stop offset="0.339844" stop-color="#1145AC"/>
<stop offset="0.34375" stop-color="#1344AC"/>
<stop offset="0.347656" stop-color="#1444AC"/>
<stop offset="0.351563" stop-color="#1544AB"/>
<stop offset="0.355469" stop-color="#1643AB"/>
<stop offset="0.359375" stop-color="#1743AB"/>
<stop offset="0.363281" stop-color="#1843AB"/>
<stop offset="0.367188" stop-color="#1942AB"/>
<stop offset="0.371094" stop-color="#1A42AB"/>
<stop offset="0.375" stop-color="#1C42AB"/>
<stop offset="0.378906" stop-color="#1D41AB"/>
<stop offset="0.382812" stop-color="#1E41AB"/>
<stop offset="0.386719" stop-color="#1F40AB"/>
<stop offset="0.390625" stop-color="#2040AB"/>
<stop offset="0.394531" stop-color="#2140AB"/>
<stop offset="0.398437" stop-color="#223FAB"/>
<stop offset="0.402344" stop-color="#233FAB"/>
<stop offset="0.40625" stop-color="#253FAA"/>
<stop offset="0.410156" stop-color="#263EAA"/>
<stop offset="0.414062" stop-color="#273EAA"/>
<stop offset="0.417969" stop-color="#283EAA"/>
<stop offset="0.421875" stop-color="#293DAA"/>
<stop offset="0.425781" stop-color="#2A3DAA"/>
<stop offset="0.429688" stop-color="#2B3DAA"/>
<stop offset="0.433594" stop-color="#2C3CAA"/>
<stop offset="0.4375" stop-color="#2D3CAA"/>
<stop offset="0.441406" stop-color="#2F3CAA"/>
<stop offset="0.445312" stop-color="#303BAA"/>
<stop offset="0.449219" stop-color="#313BAA"/>
<stop offset="0.453125" stop-color="#323BAA"/>
<stop offset="0.457031" stop-color="#333AA9"/>
<stop offset="0.460938" stop-color="#343AA9"/>
<stop offset="0.464844" stop-color="#353AA9"/>
<stop offset="0.46875" stop-color="#3639A9"/>
<stop offset="0.472656" stop-color="#3839A9"/>
<stop offset="0.476562" stop-color="#3939A9"/>
<stop offset="0.480469" stop-color="#3A38A9"/>
<stop offset="0.484375" stop-color="#3B38A9"/>
<stop offset="0.488281" stop-color="#3C38A9"/>
<stop offset="0.492187" stop-color="#3D37A9"/>
<stop offset="0.496094" stop-color="#3E37A9"/>
<stop offset="0.5" stop-color="#3F37A9"/>
<stop offset="0.503906" stop-color="#4036A9"/>
<stop offset="0.507812" stop-color="#4236A9"/>
<stop offset="0.511719" stop-color="#4336A8"/>
<stop offset="0.515625" stop-color="#4435A8"/>
<stop offset="0.519531" stop-color="#4535A8"/>
<stop offset="0.523437" stop-color="#4635A8"/>
<stop offset="0.527344" stop-color="#4734A8"/>
<stop offset="0.53125" stop-color="#4834A8"/>
<stop offset="0.535156" stop-color="#4934A8"/>
<stop offset="0.539062" stop-color="#4B33A8"/>
<stop offset="0.542969" stop-color="#4C33A8"/>
<stop offset="0.546875" stop-color="#4D32A8"/>
<stop offset="0.550781" stop-color="#4E32A8"/>
<stop offset="0.554687" stop-color="#4F32A8"/>
<stop offset="0.558594" stop-color="#5031A8"/>
<stop offset="0.5625" stop-color="#5131A7"/>
<stop offset="0.566406" stop-color="#5231A7"/>
<stop offset="0.570312" stop-color="#5330A7"/>
<stop offset="0.574219" stop-color="#5530A7"/>
<stop offset="0.578125" stop-color="#5630A7"/>
<stop offset="0.582031" stop-color="#572FA7"/>
<stop offset="0.585938" stop-color="#582FA7"/>
<stop offset="0.589844" stop-color="#592FA7"/>
<stop offset="0.59375" stop-color="#5A2EA7"/>
<stop offset="0.597656" stop-color="#5B2EA7"/>
<stop offset="0.601562" stop-color="#5C2EA7"/>
<stop offset="0.605469" stop-color="#5E2DA7"/>
<stop offset="0.609375" stop-color="#5F2DA7"/>
<stop offset="0.613281" stop-color="#602DA6"/>
<stop offset="0.617187" stop-color="#612CA6"/>
<stop offset="0.621094" stop-color="#622CA6"/>
<stop offset="0.625" stop-color="#632CA6"/>
<stop offset="0.628906" stop-color="#642BA6"/>
<stop offset="0.632812" stop-color="#652BA6"/>
<stop offset="0.636719" stop-color="#672BA6"/>
<stop offset="0.640625" stop-color="#682AA6"/>
<stop offset="0.644531" stop-color="#692AA6"/>
<stop offset="0.648438" stop-color="#6A2AA6"/>
<stop offset="0.652344" stop-color="#6B29A6"/>
<stop offset="0.65625" stop-color="#6C29A6"/>
<stop offset="0.660156" stop-color="#6D29A6"/>
<stop offset="0.664062" stop-color="#6E28A6"/>
<stop offset="0.667969" stop-color="#6F28A5"/>
<stop offset="0.671875" stop-color="#7128A5"/>
<stop offset="0.675781" stop-color="#7227A5"/>
<stop offset="0.679688" stop-color="#7327A5"/>
<stop offset="0.683594" stop-color="#7427A5"/>
<stop offset="0.6875" stop-color="#7526A5"/>
<stop offset="0.691406" stop-color="#7626A5"/>
<stop offset="0.695312" stop-color="#7725A5"/>
<stop offset="0.699219" stop-color="#7825A5"/>
<stop offset="0.703125" stop-color="#7A25A5"/>
<stop offset="0.707031" stop-color="#7B24A5"/>
<stop offset="0.710937" stop-color="#7C24A5"/>
<stop offset="0.714844" stop-color="#7D24A5"/>
<stop offset="0.71875" stop-color="#7E23A4"/>
<stop offset="0.722656" stop-color="#7F23A4"/>
<stop offset="0.726562" stop-color="#8023A4"/>
<stop offset="0.730469" stop-color="#8122A4"/>
<stop offset="0.734375" stop-color="#8222A4"/>
<stop offset="0.738281" stop-color="#8422A4"/>
<stop offset="0.742188" stop-color="#8521A4"/>
<stop offset="0.746094" stop-color="#8621A4"/>
<stop offset="0.75" stop-color="#8721A4"/>
<stop offset="0.753906" stop-color="#8820A4"/>
<stop offset="0.757812" stop-color="#8920A4"/>
<stop offset="0.761719" stop-color="#8A20A4"/>
<stop offset="0.765625" stop-color="#8B1FA4"/>
<stop offset="0.769531" stop-color="#8D1FA3"/>
<stop offset="0.773438" stop-color="#8E1FA3"/>
<stop offset="0.777344" stop-color="#8F1EA3"/>
<stop offset="0.78125" stop-color="#901EA3"/>
<stop offset="0.785156" stop-color="#911EA3"/>
<stop offset="0.789062" stop-color="#921DA3"/>
<stop offset="0.792969" stop-color="#931DA3"/>
<stop offset="0.796875" stop-color="#941DA3"/>
<stop offset="0.800781" stop-color="#951CA3"/>
<stop offset="0.804688" stop-color="#971CA3"/>
<stop offset="0.808594" stop-color="#981CA3"/>
<stop offset="0.8125" stop-color="#991BA3"/>
<stop offset="0.816406" stop-color="#9A1BA3"/>
<stop offset="0.820312" stop-color="#9B1BA3"/>
<stop offset="0.824219" stop-color="#9C1AA2"/>
<stop offset="0.828125" stop-color="#9D1AA2"/>
<stop offset="0.832031" stop-color="#9E1AA2"/>
<stop offset="0.835938" stop-color="#A019A2"/>
<stop offset="0.839844" stop-color="#A119A2"/>
<stop offset="0.84375" stop-color="#A218A2"/>
<stop offset="0.847656" stop-color="#A318A2"/>
<stop offset="0.851562" stop-color="#A418A2"/>
<stop offset="0.855469" stop-color="#A517A2"/>
<stop offset="0.859375" stop-color="#A617A2"/>
<stop offset="0.863281" stop-color="#A717A2"/>
<stop offset="0.867188" stop-color="#A816A2"/>
<stop offset="0.871094" stop-color="#AA16A2"/>
<stop offset="0.875" stop-color="#AB16A1"/>
<stop offset="0.878906" stop-color="#AC15A1"/>
<stop offset="0.882812" stop-color="#AD15A1"/>
<stop offset="0.886719" stop-color="#AE15A1"/>
<stop offset="0.890625" stop-color="#AF14A1"/>
<stop offset="0.894531" stop-color="#B014A1"/>
<stop offset="0.898438" stop-color="#B114A1"/>
<stop offset="0.902344" stop-color="#B313A1"/>
<stop offset="0.90625" stop-color="#B413A1"/>
<stop offset="0.910156" stop-color="#B513A1"/>
<stop offset="0.914062" stop-color="#B612A1"/>
<stop offset="0.917969" stop-color="#B712A1"/>
<stop offset="0.921875" stop-color="#B812A1"/>
<stop offset="0.925781" stop-color="#B911A1"/>
<stop offset="0.929688" stop-color="#BA11A0"/>
<stop offset="0.933594" stop-color="#BC11A0"/>
<stop offset="0.9375" stop-color="#BD10A0"/>
<stop offset="0.941406" stop-color="#BE10A0"/>
<stop offset="0.945312" stop-color="#BF10A0"/>
<stop offset="0.949219" stop-color="#C00FA0"/>
<stop offset="0.953125" stop-color="#C10FA0"/>
<stop offset="0.957031" stop-color="#C20FA0"/>
<stop offset="0.960938" stop-color="#C30EA0"/>
<stop offset="0.964844" stop-color="#C40EA0"/>
<stop offset="0.96875" stop-color="#C60EA0"/>
<stop offset="0.972656" stop-color="#C70DA0"/>
<stop offset="0.976563" stop-color="#C80DA0"/>
<stop offset="0.980469" stop-color="#C90D9F"/>
<stop offset="0.984375" stop-color="#CA0C9F"/>
<stop offset="0.988281" stop-color="#CB0C9F"/>
<stop offset="0.992188" stop-color="#CC0B9F"/>
<stop offset="0.996094" stop-color="#CD0B9F"/>
<stop offset="1" stop-color="#CE0B9F"/>
</linearGradient>
</defs>
</svg>
