<svg width="1440" height="64" viewBox="0 0 1440 64" fill="none" xmlns="http://www.w3.org/2000/svg">
<rect width="1440" height="64" fill="white"/>
<path fill-rule="evenodd" clip-rule="evenodd" d="M140.613 43.3412L131.736 34.5808L130.516 35.785L130.516 35.7847L129.295 34.5808L127.944 35.9143L128.183 36.151L128.644 36.6057L129.164 37.1181L128.183 38.086L127.664 37.5736L127.203 37.1181L126.963 36.8821L125.634 38.1939L125.699 38.2583L126.941 39.4847L126.266 40.1514L131.146 44.9669C132.053 45.8621 132.053 47.3229 131.146 48.2181L126.69 52.6148L127.366 53.2815L126.124 54.5071L126.059 54.5716L127.388 55.8833L127.628 55.6473L128.089 55.1919L128.609 54.6795L129.589 55.6473L129.07 56.1598L128.609 56.6152L128.369 56.8512L129.72 58.1847L130.941 56.9808L132.161 58.1847L140.613 49.8437C141.509 48.9598 141.963 47.8002 141.974 46.6372V46.5478C141.963 45.3847 141.509 44.2251 140.613 43.3412ZM128.881 60.7663L129.862 59.7984L128.881 58.8304L127.9 59.7984L128.881 60.7663ZM130.941 56.9808L132.292 55.6473L130.941 54.3138L129.589 55.6473L130.941 56.9808ZM129.164 37.1181L130.516 38.4516L131.867 37.1181L130.516 35.785L130.516 35.7854L129.164 37.1181ZM127.094 59.68L126.462 60.3033L125.83 59.68L126.462 59.0559L127.094 59.68ZM124.086 58.0236L123.607 58.4971L123.127 58.0236L123.607 57.5501L124.086 58.0236ZM124.871 59.465L124.272 60.056L123.672 59.465L124.272 58.8731L124.871 59.465ZM122.408 58.4754L121.962 58.9165L121.514 58.4754L121.962 58.0341L122.408 58.4754ZM120.795 57.9592L120.61 58.142L120.425 57.9592L120.61 57.7764L120.795 57.9592ZM122.19 57.1636L121.918 57.4326V57.4319L121.645 57.1636L121.918 56.8947L122.19 57.1636ZM123.64 55.8833L123.236 56.2819L122.833 55.8833L123.236 55.4855L123.64 55.8833ZM124.73 56.7868L124.294 57.2168L123.857 56.7868L124.294 56.3569L124.73 56.7868ZM126.277 53.6471L125.569 54.346L124.86 53.6471L125.569 52.9483L126.277 53.6471ZM125.176 54.9694L124.696 55.4428L124.217 54.9694L124.696 54.4966L125.176 54.9694ZM126.658 56.1096L125.863 56.8947L125.067 56.1096L125.863 55.3244L126.658 56.1096ZM125.982 58.0986L125.307 58.7661L124.631 58.0986L125.307 57.4319L125.982 58.0986ZM127.138 57.5398L126.571 58.0986L126.004 57.5398L126.571 56.9808L127.138 57.5398ZM128.565 56.3464L127.857 57.0452L127.148 56.3464L127.857 55.6473L128.565 56.3464ZM129.077 58.4215L128.14 59.3466L127.203 58.4215L128.14 57.497L129.077 58.4215ZM129.567 58.6686L130.2 58.0453L130.832 58.6686L130.2 59.2927L129.567 58.6686ZM126.669 33.0855L126.037 32.4622L125.405 33.0855L126.037 33.7095L126.669 33.0855ZM123.662 34.7419L123.182 34.2691L122.702 34.7419L123.182 35.2153L123.662 34.7419ZM124.446 33.3005L123.847 32.7094L123.247 33.3005L123.847 33.8923L124.446 33.3005ZM121.984 34.2901L121.536 33.8496L121.09 34.2901L121.536 34.7314L121.984 34.2901ZM120.371 34.8063L120.185 34.6235L120 34.8063L120.185 34.9891L120.371 34.8063ZM121.765 35.6019L121.493 35.3337L121.22 35.6019L121.493 35.8708L121.765 35.6019ZM123.214 36.8821L122.811 36.4844L122.408 36.8814L122.811 37.2799L123.214 36.8821ZM124.304 35.9787L123.869 35.5479L123.433 35.9787L123.869 36.4087L124.304 35.9787ZM125.852 39.1183L125.143 38.4194L124.435 39.1183L125.143 39.8173L125.852 39.1183ZM124.752 37.7961L124.272 37.3226L123.792 37.7961L124.272 38.2688L124.752 37.7961ZM126.233 36.6559L125.437 35.8708L124.642 36.6559L125.437 37.441L126.233 36.6559ZM125.557 34.6669L124.882 34.0002L124.207 34.6669L124.882 35.3337L125.557 34.6669ZM126.712 35.2258L126.146 34.6669L125.579 35.2258L126.146 35.7847L126.712 35.2258ZM128.14 36.4199L127.432 35.7202L126.724 36.4199L127.432 37.1181L128.14 36.4199ZM128.652 34.3441L127.715 33.4189L126.778 34.3441L127.715 35.2685L128.652 34.3441ZM129.437 32.9671L128.456 32L127.476 32.9671L128.456 33.9358L129.437 32.9671ZM130.407 34.0968L129.774 33.4728L129.142 34.0968L129.774 34.7201L130.407 34.0968Z" fill="url(#paint0_linear_1_627)"/>
<path d="M157.706 55.9736L150.193 34.7842H155.683L160.938 50.9331L166.192 34.7842H171.682L164.17 55.9736H157.706Z" fill="#CE0B9F"/>
<path fill-rule="evenodd" clip-rule="evenodd" d="M180.557 56.1878C178.101 56.1878 176.09 55.4012 174.522 53.8227C172.951 52.2388 172.167 50.1386 172.167 47.5194C172.167 44.9028 172.943 42.8186 174.5 41.2695C176.063 39.7232 178.08 38.9473 180.557 38.9473C183.032 38.9473 185.084 39.7151 186.711 41.2481C188.343 42.7758 189.162 44.8974 189.162 47.6157C189.162 48.1936 189.122 48.7367 189.044 49.2423H177.454C177.553 49.9861 177.885 50.5961 178.449 51.0723C179.011 51.5432 179.618 51.7787 180.269 51.7787C180.924 51.7787 181.414 51.7144 181.735 51.586C182.056 51.4523 182.291 51.3185 182.441 51.19C182.596 51.0616 182.794 50.8449 183.03 50.5372H188.616C188.137 52.2281 187.171 53.5952 185.716 54.636C184.266 55.6714 182.548 56.1878 180.557 56.1878ZM183.789 46.0104C183.709 45.2265 183.367 44.5871 182.762 44.0948C182.155 43.6025 181.438 43.3564 180.611 43.3564C179.79 43.3564 179.097 43.6025 178.535 44.0948C177.97 44.5871 177.617 45.2265 177.475 46.0104H183.789Z" fill="#CE0B9F"/>
<path fill-rule="evenodd" clip-rule="evenodd" d="M203.14 50.6442C203.881 49.9326 204.253 48.9106 204.253 47.5836C204.253 46.2566 203.881 45.2292 203.14 44.5015C202.396 43.7738 201.54 43.4099 200.572 43.4099C199.608 43.4099 198.752 43.7711 198.003 44.4908C197.259 45.2051 196.89 46.2245 196.89 47.5515C196.89 48.8785 197.259 49.9058 198.003 50.6336C198.752 51.3559 199.608 51.7144 200.572 51.7144C201.54 51.7144 202.396 51.3586 203.14 50.6442ZM196.89 41.3338C198.038 39.7445 199.683 38.9473 201.824 38.9473C203.969 38.9473 205.786 39.7579 207.271 41.3766C208.761 42.9979 209.508 45.066 209.508 47.5836C209.508 50.0958 208.761 52.1586 207.271 53.7692C205.786 55.3825 203.986 56.1878 201.867 56.1878C199.753 56.1878 198.094 55.2995 196.89 53.523V64H191.732V39.1292H196.89V41.3338Z" fill="#CE0B9F"/>
<defs>
<linearGradient id="paint0_linear_1_627" x1="119.819" y1="44.7242" x2="142.197" y2="45.0407" gradientUnits="userSpaceOnUse">
<stop stop-color="#94B348"/>
<stop offset="0.00390625" stop-color="#92B24A"/>
<stop offset="0.0078125" stop-color="#90B04B"/>
<stop offset="0.0117188" stop-color="#8EAF4D"/>
<stop offset="0.015625" stop-color="#8CAD4E"/>
<stop offset="0.0195312" stop-color="#8AAC4F"/>
<stop offset="0.0234375" stop-color="#88AA51"/>
<stop offset="0.0273438" stop-color="#86A952"/>
<stop offset="0.03125" stop-color="#84A754"/>
<stop offset="0.0351563" stop-color="#82A655"/>
<stop offset="0.0390625" stop-color="#7FA456"/>
<stop offset="0.0429687" stop-color="#7DA358"/>
<stop offset="0.046875" stop-color="#7BA159"/>
<stop offset="0.0507813" stop-color="#79A05B"/>
<stop offset="0.0546875" stop-color="#779F5C"/>
<stop offset="0.0585938" stop-color="#759D5E"/>
<stop offset="0.0625" stop-color="#739C5F"/>
<stop offset="0.0664062" stop-color="#719A60"/>
<stop offset="0.0703125" stop-color="#6F9962"/>
<stop offset="0.0742187" stop-color="#6D9763"/>
<stop offset="0.078125" stop-color="#6B9665"/>
<stop offset="0.0820313" stop-color="#699466"/>
<stop offset="0.0859375" stop-color="#679367"/>
<stop offset="0.0898438" stop-color="#649169"/>
<stop offset="0.09375" stop-color="#62906A"/>
<stop offset="0.0976563" stop-color="#608E6C"/>
<stop offset="0.101563" stop-color="#5E8D6D"/>
<stop offset="0.105469" stop-color="#5C8B6E"/>
<stop offset="0.109375" stop-color="#5A8A70"/>
<stop offset="0.113281" stop-color="#588871"/>
<stop offset="0.117188" stop-color="#568773"/>
<stop offset="0.121094" stop-color="#548574"/>
<stop offset="0.125" stop-color="#528475"/>
<stop offset="0.128906" stop-color="#508377"/>
<stop offset="0.132812" stop-color="#4E8178"/>
<stop offset="0.136719" stop-color="#4C807A"/>
<stop offset="0.140625" stop-color="#497E7B"/>
<stop offset="0.144531" stop-color="#477D7D"/>
<stop offset="0.148437" stop-color="#457B7E"/>
<stop offset="0.152344" stop-color="#437A7F"/>
<stop offset="0.15625" stop-color="#417881"/>
<stop offset="0.160156" stop-color="#3F7782"/>
<stop offset="0.164063" stop-color="#3D7584"/>
<stop offset="0.167969" stop-color="#3B7485"/>
<stop offset="0.171875" stop-color="#397286"/>
<stop offset="0.175781" stop-color="#377188"/>
<stop offset="0.179687" stop-color="#356F89"/>
<stop offset="0.183594" stop-color="#336E8B"/>
<stop offset="0.1875" stop-color="#316C8C"/>
<stop offset="0.191406" stop-color="#2E6B8D"/>
<stop offset="0.195312" stop-color="#2C698F"/>
<stop offset="0.199219" stop-color="#2A6890"/>
<stop offset="0.203125" stop-color="#286792"/>
<stop offset="0.207031" stop-color="#266593"/>
<stop offset="0.210938" stop-color="#246494"/>
<stop offset="0.214844" stop-color="#226296"/>
<stop offset="0.21875" stop-color="#206197"/>
<stop offset="0.222656" stop-color="#1E5F99"/>
<stop offset="0.226562" stop-color="#1C5E9A"/>
<stop offset="0.230469" stop-color="#1A5C9B"/>
<stop offset="0.234375" stop-color="#185B9D"/>
<stop offset="0.238281" stop-color="#16599E"/>
<stop offset="0.242187" stop-color="#1358A0"/>
<stop offset="0.246094" stop-color="#1156A1"/>
<stop offset="0.25" stop-color="#0F55A3"/>
<stop offset="0.253906" stop-color="#0D53A4"/>
<stop offset="0.257813" stop-color="#0B52A5"/>
<stop offset="0.261719" stop-color="#0950A7"/>
<stop offset="0.265625" stop-color="#074FA8"/>
<stop offset="0.269531" stop-color="#054DAA"/>
<stop offset="0.273438" stop-color="#034CAB"/>
<stop offset="0.277344" stop-color="#024BAC"/>
<stop offset="0.28125" stop-color="#014AAD"/>
<stop offset="0.285156" stop-color="#0249AD"/>
<stop offset="0.289062" stop-color="#0349AD"/>
<stop offset="0.292969" stop-color="#0449AD"/>
<stop offset="0.296875" stop-color="#0548AD"/>
<stop offset="0.300781" stop-color="#0648AC"/>
<stop offset="0.304688" stop-color="#0748AC"/>
<stop offset="0.308594" stop-color="#0947AC"/>
<stop offset="0.3125" stop-color="#0A47AC"/>
<stop offset="0.316406" stop-color="#0B47AC"/>
<stop offset="0.320312" stop-color="#0C46AC"/>
<stop offset="0.324219" stop-color="#0D46AC"/>
<stop offset="0.328125" stop-color="#0E46AC"/>
<stop offset="0.332031" stop-color="#0F45AC"/>
<stop offset="0.335937" stop-color="#1045AC"/>
<stop offset="0.339844" stop-color="#1145AC"/>
<stop offset="0.34375" stop-color="#1344AC"/>
<stop offset="0.347656" stop-color="#1444AC"/>
<stop offset="0.351563" stop-color="#1544AB"/>
<stop offset="0.355469" stop-color="#1643AB"/>
<stop offset="0.359375" stop-color="#1743AB"/>
<stop offset="0.363281" stop-color="#1843AB"/>
<stop offset="0.367188" stop-color="#1942AB"/>
<stop offset="0.371094" stop-color="#1A42AB"/>
<stop offset="0.375" stop-color="#1C42AB"/>
<stop offset="0.378906" stop-color="#1D41AB"/>
<stop offset="0.382812" stop-color="#1E41AB"/>
<stop offset="0.386719" stop-color="#1F40AB"/>
<stop offset="0.390625" stop-color="#2040AB"/>
<stop offset="0.394531" stop-color="#2140AB"/>
<stop offset="0.398437" stop-color="#223FAB"/>
<stop offset="0.402344" stop-color="#233FAB"/>
<stop offset="0.40625" stop-color="#253FAA"/>
<stop offset="0.410156" stop-color="#263EAA"/>
<stop offset="0.414062" stop-color="#273EAA"/>
<stop offset="0.417969" stop-color="#283EAA"/>
<stop offset="0.421875" stop-color="#293DAA"/>
<stop offset="0.425781" stop-color="#2A3DAA"/>
<stop offset="0.429688" stop-color="#2B3DAA"/>
<stop offset="0.433594" stop-color="#2C3CAA"/>
<stop offset="0.4375" stop-color="#2D3CAA"/>
<stop offset="0.441406" stop-color="#2F3CAA"/>
<stop offset="0.445312" stop-color="#303BAA"/>
<stop offset="0.449219" stop-color="#313BAA"/>
<stop offset="0.453125" stop-color="#323BAA"/>
<stop offset="0.457031" stop-color="#333AA9"/>
<stop offset="0.460938" stop-color="#343AA9"/>
<stop offset="0.464844" stop-color="#353AA9"/>
<stop offset="0.46875" stop-color="#3639A9"/>
<stop offset="0.472656" stop-color="#3839A9"/>
<stop offset="0.476562" stop-color="#3939A9"/>
<stop offset="0.480469" stop-color="#3A38A9"/>
<stop offset="0.484375" stop-color="#3B38A9"/>
<stop offset="0.488281" stop-color="#3C38A9"/>
<stop offset="0.492187" stop-color="#3D37A9"/>
<stop offset="0.496094" stop-color="#3E37A9"/>
<stop offset="0.5" stop-color="#3F37A9"/>
<stop offset="0.503906" stop-color="#4036A9"/>
<stop offset="0.507812" stop-color="#4236A9"/>
<stop offset="0.511719" stop-color="#4336A8"/>
<stop offset="0.515625" stop-color="#4435A8"/>
<stop offset="0.519531" stop-color="#4535A8"/>
<stop offset="0.523437" stop-color="#4635A8"/>
<stop offset="0.527344" stop-color="#4734A8"/>
<stop offset="0.53125" stop-color="#4834A8"/>
<stop offset="0.535156" stop-color="#4934A8"/>
<stop offset="0.539062" stop-color="#4B33A8"/>
<stop offset="0.542969" stop-color="#4C33A8"/>
<stop offset="0.546875" stop-color="#4D32A8"/>
<stop offset="0.550781" stop-color="#4E32A8"/>
<stop offset="0.554687" stop-color="#4F32A8"/>
<stop offset="0.558594" stop-color="#5031A8"/>
<stop offset="0.5625" stop-color="#5131A7"/>
<stop offset="0.566406" stop-color="#5231A7"/>
<stop offset="0.570312" stop-color="#5330A7"/>
<stop offset="0.574219" stop-color="#5530A7"/>
<stop offset="0.578125" stop-color="#5630A7"/>
<stop offset="0.582031" stop-color="#572FA7"/>
<stop offset="0.585938" stop-color="#582FA7"/>
<stop offset="0.589844" stop-color="#592FA7"/>
<stop offset="0.59375" stop-color="#5A2EA7"/>
<stop offset="0.597656" stop-color="#5B2EA7"/>
<stop offset="0.601562" stop-color="#5C2EA7"/>
<stop offset="0.605469" stop-color="#5E2DA7"/>
<stop offset="0.609375" stop-color="#5F2DA7"/>
<stop offset="0.613281" stop-color="#602DA6"/>
<stop offset="0.617187" stop-color="#612CA6"/>
<stop offset="0.621094" stop-color="#622CA6"/>
<stop offset="0.625" stop-color="#632CA6"/>
<stop offset="0.628906" stop-color="#642BA6"/>
<stop offset="0.632812" stop-color="#652BA6"/>
<stop offset="0.636719" stop-color="#672BA6"/>
<stop offset="0.640625" stop-color="#682AA6"/>
<stop offset="0.644531" stop-color="#692AA6"/>
<stop offset="0.648438" stop-color="#6A2AA6"/>
<stop offset="0.652344" stop-color="#6B29A6"/>
<stop offset="0.65625" stop-color="#6C29A6"/>
<stop offset="0.660156" stop-color="#6D29A6"/>
<stop offset="0.664062" stop-color="#6E28A6"/>
<stop offset="0.667969" stop-color="#6F28A5"/>
<stop offset="0.671875" stop-color="#7128A5"/>
<stop offset="0.675781" stop-color="#7227A5"/>
<stop offset="0.679688" stop-color="#7327A5"/>
<stop offset="0.683594" stop-color="#7427A5"/>
<stop offset="0.6875" stop-color="#7526A5"/>
<stop offset="0.691406" stop-color="#7626A5"/>
<stop offset="0.695312" stop-color="#7725A5"/>
<stop offset="0.699219" stop-color="#7825A5"/>
<stop offset="0.703125" stop-color="#7A25A5"/>
<stop offset="0.707031" stop-color="#7B24A5"/>
<stop offset="0.710937" stop-color="#7C24A5"/>
<stop offset="0.714844" stop-color="#7D24A5"/>
<stop offset="0.71875" stop-color="#7E23A4"/>
<stop offset="0.722656" stop-color="#7F23A4"/>
<stop offset="0.726562" stop-color="#8023A4"/>
<stop offset="0.730469" stop-color="#8122A4"/>
<stop offset="0.734375" stop-color="#8222A4"/>
<stop offset="0.738281" stop-color="#8422A4"/>
<stop offset="0.742188" stop-color="#8521A4"/>
<stop offset="0.746094" stop-color="#8621A4"/>
<stop offset="0.75" stop-color="#8721A4"/>
<stop offset="0.753906" stop-color="#8820A4"/>
<stop offset="0.757812" stop-color="#8920A4"/>
<stop offset="0.761719" stop-color="#8A20A4"/>
<stop offset="0.765625" stop-color="#8B1FA4"/>
<stop offset="0.769531" stop-color="#8D1FA3"/>
<stop offset="0.773438" stop-color="#8E1FA3"/>
<stop offset="0.777344" stop-color="#8F1EA3"/>
<stop offset="0.78125" stop-color="#901EA3"/>
<stop offset="0.785156" stop-color="#911EA3"/>
<stop offset="0.789062" stop-color="#921DA3"/>
<stop offset="0.792969" stop-color="#931DA3"/>
<stop offset="0.796875" stop-color="#941DA3"/>
<stop offset="0.800781" stop-color="#951CA3"/>
<stop offset="0.804688" stop-color="#971CA3"/>
<stop offset="0.808594" stop-color="#981CA3"/>
<stop offset="0.8125" stop-color="#991BA3"/>
<stop offset="0.816406" stop-color="#9A1BA3"/>
<stop offset="0.820312" stop-color="#9B1BA3"/>
<stop offset="0.824219" stop-color="#9C1AA2"/>
<stop offset="0.828125" stop-color="#9D1AA2"/>
<stop offset="0.832031" stop-color="#9E1AA2"/>
<stop offset="0.835938" stop-color="#A019A2"/>
<stop offset="0.839844" stop-color="#A119A2"/>
<stop offset="0.84375" stop-color="#A218A2"/>
<stop offset="0.847656" stop-color="#A318A2"/>
<stop offset="0.851562" stop-color="#A418A2"/>
<stop offset="0.855469" stop-color="#A517A2"/>
<stop offset="0.859375" stop-color="#A617A2"/>
<stop offset="0.863281" stop-color="#A717A2"/>
<stop offset="0.867188" stop-color="#A816A2"/>
<stop offset="0.871094" stop-color="#AA16A2"/>
<stop offset="0.875" stop-color="#AB16A1"/>
<stop offset="0.878906" stop-color="#AC15A1"/>
<stop offset="0.882812" stop-color="#AD15A1"/>
<stop offset="0.886719" stop-color="#AE15A1"/>
<stop offset="0.890625" stop-color="#AF14A1"/>
<stop offset="0.894531" stop-color="#B014A1"/>
<stop offset="0.898438" stop-color="#B114A1"/>
<stop offset="0.902344" stop-color="#B313A1"/>
<stop offset="0.90625" stop-color="#B413A1"/>
<stop offset="0.910156" stop-color="#B513A1"/>
<stop offset="0.914062" stop-color="#B612A1"/>
<stop offset="0.917969" stop-color="#B712A1"/>
<stop offset="0.921875" stop-color="#B812A1"/>
<stop offset="0.925781" stop-color="#B911A1"/>
<stop offset="0.929688" stop-color="#BA11A0"/>
<stop offset="0.933594" stop-color="#BC11A0"/>
<stop offset="0.9375" stop-color="#BD10A0"/>
<stop offset="0.941406" stop-color="#BE10A0"/>
<stop offset="0.945312" stop-color="#BF10A0"/>
<stop offset="0.949219" stop-color="#C00FA0"/>
<stop offset="0.953125" stop-color="#C10FA0"/>
<stop offset="0.957031" stop-color="#C20FA0"/>
<stop offset="0.960938" stop-color="#C30EA0"/>
<stop offset="0.964844" stop-color="#C40EA0"/>
<stop offset="0.96875" stop-color="#C60EA0"/>
<stop offset="0.972656" stop-color="#C70DA0"/>
<stop offset="0.976563" stop-color="#C80DA0"/>
<stop offset="0.980469" stop-color="#C90D9F"/>
<stop offset="0.984375" stop-color="#CA0C9F"/>
<stop offset="0.988281" stop-color="#CB0C9F"/>
<stop offset="0.992188" stop-color="#CC0B9F"/>
<stop offset="0.996094" stop-color="#CD0B9F"/>
<stop offset="1" stop-color="#CE0B9F"/>
</linearGradient>
</defs>
</svg>
